<svg width="456" height="72" viewBox="0 0 456 72" fill="none" xmlns="http://www.w3.org/2000/svg">
<path d="M1.728 34V33.04C3.072 33.184 5.088 32.704 5.808 31.744C6.432 30.976 6.432 29.536 6.432 27.328V10.384C6.432 4.912 6.336 3.76 5.76 2.752C5.184 1.792 4.32 1.408 2.208 1.408H1.728V0.447997H39.264V1.408H38.928C38.112 1.408 36.288 1.408 35.424 2.368C34.848 3.04 34.656 4.192 34.656 6.208V22.336C34.656 28.24 34.8 29.44 35.088 30.448C35.664 32.56 37.68 33.136 39.264 33.04V34H23.808V33.04C25.248 33.184 27.6 32.8 28.56 31.792C29.616 30.688 29.568 28.816 29.568 27.424V3.136C29.568 2.944 29.568 2.416 29.328 2.128C29.184 1.936 28.8 1.792 27.744 1.792H13.008C12.576 1.792 12.048 1.792 11.808 2.032C11.664 2.176 11.52 2.56 11.52 3.472V27.76C11.52 28.864 11.52 30.784 12.432 31.792C13.296 32.704 15.312 33.088 16.512 33.04V34H1.728ZM47.6888 10.96H55.7048L62.5208 29.008C63.1928 30.832 63.6728 31.504 63.9608 31.84C64.7768 32.8 65.7368 33.04 66.6488 33.04H66.8888V34H56.5688V33.04C56.9528 33.04 57.8648 32.992 58.4888 32.848C58.9688 32.752 59.2568 32.656 59.2568 32.08C59.2568 31.648 59.1128 31.264 58.9208 30.784L52.8728 14.224H52.7768C52.0088 17.584 51.3368 19.648 50.5208 22.144C49.8008 24.304 49.2728 25.984 48.2648 28.384C47.4968 30.256 47.0168 31.168 46.6808 31.744C46.2968 32.416 45.7208 33.232 45.1448 33.712C44.4248 34.336 43.7048 34.576 42.8408 34.576C42.3128 34.576 41.8808 34.48 41.4008 34C41.0168 33.616 40.7767 33.136 40.7767 32.416C40.7767 31.744 40.9688 31.312 41.3048 30.976C41.8808 30.352 42.5048 30.256 42.9368 30.256C43.5608 30.256 44.0888 30.544 44.3768 30.736C44.6168 30.88 44.8568 31.12 45.0488 31.12C45.5288 31.12 46.1528 29.968 46.3448 29.584C46.9208 28.48 47.6408 26.704 48.0728 25.648C48.7928 23.824 49.9448 20.32 50.4728 18.64C51.2408 16 51.3848 15.088 51.3848 14.512C51.3848 13.84 51.2408 13.12 50.5688 12.592C49.7528 11.968 48.2168 11.92 47.6888 11.92V10.96ZM66.3326 34V33.04C67.4366 32.992 68.2526 32.512 68.8286 31.984C69.3086 31.504 69.8366 30.736 70.4126 29.392L77.1806 12.928C77.4206 12.352 77.7086 11.44 78.2846 10.768C78.4286 10.624 78.6206 10.384 78.8606 10.384C79.0526 10.384 79.1966 10.528 79.3406 10.672C79.6766 11.056 80.4446 12.016 82.1726 16.24L87.5006 29.056C88.0766 30.4 88.6046 31.456 89.2766 32.08C89.7086 32.464 90.5726 32.992 91.6766 33.04V34H81.4526V33.04C81.8366 33.04 82.6046 32.992 83.1326 32.8C83.4686 32.704 83.9486 32.464 83.9486 31.744C83.9486 31.552 83.8046 30.976 83.7086 30.688C83.6606 30.496 83.5646 30.304 83.4686 30.112C83.3726 29.824 83.2766 29.584 83.1806 29.296L82.1246 26.608C81.9806 26.32 81.8366 25.984 81.5006 25.792C81.1166 25.6 80.5886 25.552 80.3006 25.552H74.4446C73.3406 25.552 73.0526 26.224 72.6686 27.184L71.6126 29.968C71.4686 30.352 71.2766 31.072 71.2766 31.504C71.2766 31.936 71.4206 32.32 71.9006 32.608C72.3806 32.896 73.5326 33.088 74.2526 33.04V34H66.3326ZM74.5886 24.496H80.2046C80.3966 24.496 80.7326 24.448 80.8766 24.4C80.9246 24.352 81.0206 24.256 81.0206 24.112C81.0206 23.92 80.9246 23.776 80.7806 23.44C80.6846 23.2 80.6366 23.008 80.5406 22.768C80.4446 22.528 80.3006 22.24 80.2046 22L77.7566 15.856C77.6606 15.664 77.5646 15.376 77.4686 15.376C77.3726 15.376 77.2766 15.52 77.1806 15.712C77.0366 16 76.6526 17.056 76.4606 17.488L74.1086 23.488C74.0126 23.68 73.9166 24.016 73.9166 24.16C73.9166 24.304 73.9646 24.352 74.0126 24.4C74.1566 24.496 74.4446 24.496 74.5886 24.496ZM93.411 34V33.04C94.179 33.088 95.427 32.896 96.003 32.464C96.723 31.888 96.771 31.024 96.771 30.352V15.328C96.771 14.56 96.819 13.408 96.195 12.736C95.715 12.208 94.323 11.872 93.411 11.92V10.96H104.355V11.92C103.875 11.92 102.243 11.968 101.619 12.544C101.427 12.736 100.995 13.216 100.995 14.272V20.656C100.995 21.04 101.187 21.232 101.283 21.328C101.475 21.52 101.763 21.52 102.003 21.52H111.411C111.651 21.52 111.987 21.52 112.227 21.28C112.323 21.184 112.515 20.944 112.515 20.464V14.704C112.515 13.984 112.467 13.072 111.891 12.544C111.315 12.016 109.731 11.92 109.155 11.92V10.96H120.099V11.92C119.523 11.92 117.939 12.016 117.363 12.544C116.739 13.12 116.739 14.032 116.739 14.752V28.624C116.739 30.496 116.787 31.648 117.315 32.272C117.939 32.992 119.091 33.04 119.907 33.04H120.099V34H109.155V33.04C110.019 33.04 111.363 32.896 111.891 32.416C112.275 32.08 112.515 31.408 112.515 30.688V23.68C112.515 23.392 112.515 23.152 112.275 22.912C112.131 22.768 111.843 22.672 111.507 22.672H102.099C101.907 22.672 101.523 22.672 101.283 22.864C100.995 23.056 100.995 23.44 100.995 23.584V30.64C100.995 31.12 100.995 31.84 101.667 32.416C102.243 32.896 103.539 33.088 104.355 33.04V34H93.411ZM134.942 34V33.04C135.71 33.088 136.958 32.896 137.534 32.464C138.254 31.888 138.302 31.024 138.302 30.352V15.328C138.302 14.56 138.35 13.408 137.726 12.736C137.246 12.208 135.854 11.872 134.942 11.92V10.96H161.342V11.92C160.766 11.92 159.182 12.016 158.606 12.544C157.982 13.12 157.982 14.032 157.982 14.752V28.624C157.982 30.496 158.03 31.648 158.558 32.272C159.182 32.992 160.334 33.04 161.15 33.04H161.342V34H150.494V33.04C151.214 33.04 152.606 32.896 153.134 32.416C153.518 32.08 153.758 31.408 153.758 30.688V13.024C153.758 12.88 153.758 12.496 153.47 12.304C153.23 12.112 152.846 12.112 152.654 12.112H143.63C143.438 12.112 143.054 12.112 142.814 12.304C142.526 12.496 142.526 12.88 142.526 13.024V30.64C142.526 31.12 142.526 31.84 143.198 32.416C143.822 32.944 145.07 33.088 145.79 33.04V34H134.942ZM164.475 34V33.04C165.339 33.04 166.731 32.848 167.307 32.224C167.883 31.6 167.835 30.448 167.835 29.632V15.28C167.835 14.512 167.835 13.312 167.115 12.592C166.443 11.92 165.435 11.968 164.763 11.968H164.427V10.96H172.923C173.739 10.96 174.555 10.912 175.371 10.912C176.523 10.912 177.723 10.912 178.875 10.864C180.315 10.816 180.507 10.768 181.083 10.768C181.323 10.768 181.563 10.816 181.803 10.912C182.187 11.104 182.283 11.344 182.379 11.632L183.915 15.856L183.243 16.144C182.619 15.28 181.227 13.552 180.123 12.784C179.067 12.064 178.251 12.016 177.339 12.016H174.651C173.355 12.016 172.827 12.16 172.587 12.352C172.107 12.688 172.059 13.168 172.059 13.504V20.608C172.059 20.848 172.107 21.232 172.299 21.52C172.587 21.856 172.827 21.808 173.163 21.808H173.787C174.747 21.808 175.755 21.76 176.619 20.992C177.435 20.224 177.867 18.688 177.867 17.584H178.827C178.731 19.12 178.683 20.896 178.683 22.288C178.683 23.68 178.731 25.456 178.827 26.944H177.867C177.867 25.792 177.435 24.4 176.811 23.776C176.043 23.008 174.939 22.96 174.219 22.96H172.731C172.539 22.96 172.347 22.96 172.203 23.104C172.107 23.248 172.059 23.632 172.059 23.824V31.264C172.059 31.792 172.059 32.272 172.635 32.656C172.971 32.896 173.547 32.944 175.227 32.944H179.595C180.315 32.944 181.083 32.704 181.707 32.32C182.907 31.6 183.963 29.92 184.491 28.672L185.259 28.816C185.067 29.776 184.299 33.232 183.915 33.904C183.819 34.048 183.723 34.192 183.531 34.24C183.387 34.288 182.811 34.336 182.571 34.336C182.139 34.336 182.139 34.288 181.131 34.24C180.891 34.24 180.699 34.24 180.507 34.24C180.123 34.24 179.691 34.192 179.307 34.192C174.171 34 171.339 34 170.283 34H164.475ZM187.489 34V33.04C188.401 33.088 189.793 32.752 190.273 32.224C190.897 31.552 190.849 30.4 190.849 29.632V14.608C190.849 13.936 190.801 13.072 190.081 12.496C189.505 12.064 188.257 11.872 187.489 11.92V10.96H198.481C200.497 10.96 202.849 11.152 204.673 12.448C206.209 13.504 207.169 15.184 207.169 17.584C207.169 19.744 206.449 21.664 204.481 23.008C203.041 24.016 201.121 24.496 199.297 24.496C197.857 24.496 196.321 24.16 195.073 23.728V29.44C195.073 30.928 195.121 31.744 195.553 32.272C196.225 33.088 197.521 33.04 198.193 33.04H199.009V34H187.489ZM195.073 14.032V22.48C195.841 22.912 196.801 23.248 198.049 23.248C199.777 23.248 201.025 22.624 201.745 21.904C202.993 20.656 203.137 18.688 203.137 17.536C203.137 16.432 202.993 14.896 201.937 13.696C200.689 12.256 198.769 12.016 197.569 12.016C196.897 12.016 195.937 12.064 195.457 12.592C195.121 12.976 195.073 13.504 195.073 14.032ZM210.411 34V33.04C211.179 33.088 212.427 32.896 213.003 32.464C213.723 31.888 213.771 31.024 213.771 30.352V15.328C213.771 14.56 213.819 13.408 213.195 12.736C212.715 12.208 211.323 11.872 210.411 11.92V10.96H222.219C222.795 10.96 226.011 11.008 227.883 12.16C228.987 12.832 230.091 14.224 230.091 16.336C230.091 18.064 229.323 19.264 228.075 20.176C227.019 20.944 225.627 21.472 224.331 21.664V21.76C225.771 22 227.499 22.576 228.699 23.392C230.331 24.496 231.147 26.032 231.147 28.048C231.147 30.304 230.091 31.696 228.843 32.56C226.971 33.856 224.331 34 222.507 34H210.411ZM217.995 13.696V19.936C217.995 20.224 218.043 20.752 218.235 20.992C218.475 21.328 218.907 21.328 219.195 21.328H220.731C221.931 21.328 223.707 20.992 224.811 19.696C225.291 19.12 225.867 18.064 225.867 16.48C225.867 14.848 225.339 13.744 224.427 13.024C223.419 12.208 222.123 12.016 220.875 12.016C219.531 12.016 218.955 12.16 218.571 12.4C217.995 12.784 217.995 13.264 217.995 13.696ZM217.995 23.68V30.976C217.995 31.36 217.995 32.128 218.379 32.512C218.523 32.608 218.907 32.944 220.299 32.944C221.499 32.944 223.227 32.704 224.427 31.984C225.531 31.312 226.635 30.016 226.635 27.76C226.635 25.36 225.483 24.112 224.475 23.44C223.227 22.624 221.739 22.384 220.251 22.384C218.955 22.384 218.523 22.432 218.283 22.672C217.995 22.96 217.995 23.44 217.995 23.68ZM247.316 10.576C250.868 10.576 253.412 11.824 254.996 13.072C257.156 14.752 259.268 17.68 259.268 22.24C259.268 27.568 256.532 30.592 254.708 32.032C252.356 33.904 249.812 34.576 246.932 34.576C243.524 34.576 240.98 33.616 238.868 31.744C237.14 30.208 234.98 27.376 234.98 22.768C234.98 19.888 235.844 16.288 239.3 13.408C241.508 11.536 244.148 10.576 247.316 10.576ZM246.932 33.52C249.476 33.52 251.3 32.704 252.596 30.832C253.076 30.16 254.468 27.856 254.468 22.432C254.468 20.56 254.324 16.816 252.644 14.368C251.3 12.4 249.38 11.632 247.268 11.632C244.244 11.632 242.516 13.216 241.604 14.656C240.116 16.96 239.78 20.608 239.78 23.104C239.78 28.048 241.028 30.208 241.364 30.736C242.708 32.944 244.628 33.52 246.932 33.52ZM262.63 34V33.04C263.494 33.04 264.886 32.848 265.462 32.224C266.038 31.6 265.99 30.448 265.99 29.632V15.28C265.99 14.512 265.99 13.312 265.27 12.592C264.598 11.92 263.59 11.968 262.918 11.968H262.63V10.96H271.366C272.182 10.96 272.998 10.912 273.814 10.912C274.966 10.912 276.166 10.912 277.318 10.864C278.758 10.816 278.95 10.768 279.526 10.768C279.766 10.768 280.006 10.816 280.246 10.912C280.63 11.104 280.726 11.344 280.822 11.632L282.31 16.336L281.542 16.624C281.014 15.616 279.766 13.648 278.566 12.784C277.558 12.064 276.646 12.016 275.782 12.016H272.806C271.51 12.016 270.982 12.16 270.742 12.352C270.262 12.688 270.214 13.168 270.214 13.504V29.44C270.214 30.928 270.262 31.744 270.694 32.272C271.366 33.088 272.662 33.04 273.334 33.04H274.15V34H262.63ZM296.207 10.576C299.759 10.576 302.303 11.824 303.887 13.072C306.047 14.752 308.159 17.68 308.159 22.24C308.159 27.568 305.423 30.592 303.599 32.032C301.247 33.904 298.703 34.576 295.823 34.576C292.415 34.576 289.871 33.616 287.759 31.744C286.031 30.208 283.871 27.376 283.871 22.768C283.871 19.888 284.735 16.288 288.191 13.408C290.399 11.536 293.039 10.576 296.207 10.576ZM295.823 33.52C298.367 33.52 300.191 32.704 301.487 30.832C301.967 30.16 303.359 27.856 303.359 22.432C303.359 20.56 303.215 16.816 301.535 14.368C300.191 12.4 298.271 11.632 296.159 11.632C293.135 11.632 291.407 13.216 290.495 14.656C289.007 16.96 288.671 20.608 288.671 23.104C288.671 28.048 289.919 30.208 290.255 30.736C291.599 32.944 293.519 33.52 295.823 33.52ZM324.054 23.2L324.534 22.336C325.254 22.816 326.454 23.344 327.27 23.344C328.326 23.344 329.238 22.624 329.958 21.904L330.774 21.088C331.686 20.176 332.934 18.88 335.142 18.88C336.918 18.88 338.598 19.984 339.51 20.704C339.414 18.688 338.646 15.664 337.11 13.984C336.006 12.736 334.086 11.632 331.446 11.632C329.19 11.632 327.558 12.688 326.598 13.648C325.782 14.464 324.966 15.76 324.438 17.008L323.766 16.864L324.246 11.488C324.534 11.584 324.822 11.632 325.206 11.632C326.118 11.632 327.462 11.248 327.846 11.152C328.95 10.816 329.91 10.576 331.878 10.576C333.846 10.576 336.054 10.864 338.118 11.92C342.006 13.888 344.214 17.92 344.214 22.72C344.214 25.552 343.446 29.92 339.318 32.56C336.822 34.144 334.086 34.576 331.59 34.576C330.054 34.576 328.23 34.384 326.166 34.096C325.542 34 325.062 33.952 324.582 33.76C324.15 33.568 324.054 33.424 323.958 32.464C323.91 32.176 323.91 31.888 323.862 31.6C323.814 31.216 323.814 30.832 323.766 30.448C323.718 30.208 323.718 29.92 323.67 29.68C323.67 29.536 323.622 29.392 323.622 29.248C323.622 29.104 323.574 28.96 323.574 28.816C323.526 28.528 323.526 28.24 323.478 27.952L324.15 27.808C324.726 29.008 325.734 30.64 326.694 31.6C328.038 32.944 329.574 33.52 331.83 33.52C334.134 33.52 335.91 32.944 337.35 31.072C339.03 28.912 339.798 24.88 339.558 22.048C338.838 21.568 337.59 21.088 336.774 21.088C335.334 21.088 334.518 22.048 333.798 22.768L333.078 23.488C331.878 24.688 330.678 25.456 329.238 25.456C328.182 25.456 327.174 25.024 326.31 24.544C325.734 24.208 325.206 23.872 324.054 23.2ZM352.053 34V33.04C353.109 33.136 354.885 32.752 355.413 32.128C355.893 31.552 355.941 30.544 355.941 28.72V13.744C355.941 13.36 355.941 12.736 355.653 12.4C355.413 12.112 354.837 12.016 353.589 12.016C352.149 12.016 350.661 12.112 349.509 12.784C348.357 13.456 347.253 14.992 346.581 16.384L345.813 16.24L347.109 11.392C347.157 11.152 347.301 10.768 347.397 10.528C347.445 10.432 347.493 10.336 347.637 10.336C347.781 10.336 347.925 10.432 348.213 10.576C349.029 10.96 349.605 10.96 350.277 10.96H365.829C366.501 10.96 367.077 10.96 367.893 10.576C368.181 10.432 368.325 10.336 368.469 10.336C368.613 10.336 368.661 10.432 368.709 10.528C368.805 10.768 368.949 11.152 368.997 11.392L370.293 16.24L369.525 16.384C368.853 14.992 367.749 13.456 366.597 12.784C365.493 12.112 364.053 12.016 362.517 12.016C361.269 12.016 360.741 12.112 360.453 12.4C360.165 12.736 360.165 13.36 360.165 13.744V29.44C360.165 30.928 360.213 31.744 360.645 32.272C361.317 33.088 362.613 33.04 363.285 33.04H364.053V34H352.053ZM368.536 34V33.04C369.64 32.992 370.456 32.512 371.032 31.984C371.512 31.504 372.04 30.736 372.616 29.392L379.384 12.928C379.624 12.352 379.912 11.44 380.488 10.768C380.632 10.624 380.824 10.384 381.064 10.384C381.256 10.384 381.4 10.528 381.544 10.672C381.88 11.056 382.648 12.016 384.376 16.24L389.704 29.056C390.28 30.4 390.808 31.456 391.48 32.08C391.912 32.464 392.776 32.992 393.88 33.04V34H383.656V33.04C384.04 33.04 384.808 32.992 385.336 32.8C385.672 32.704 386.152 32.464 386.152 31.744C386.152 31.552 386.008 30.976 385.912 30.688C385.864 30.496 385.768 30.304 385.672 30.112C385.576 29.824 385.48 29.584 385.384 29.296L384.328 26.608C384.184 26.32 384.04 25.984 383.704 25.792C383.32 25.6 382.792 25.552 382.504 25.552H376.648C375.544 25.552 375.256 26.224 374.872 27.184L373.816 29.968C373.672 30.352 373.48 31.072 373.48 31.504C373.48 31.936 373.624 32.32 374.104 32.608C374.584 32.896 375.736 33.088 376.456 33.04V34H368.536ZM376.792 24.496H382.408C382.6 24.496 382.936 24.448 383.08 24.4C383.128 24.352 383.224 24.256 383.224 24.112C383.224 23.92 383.128 23.776 382.984 23.44C382.888 23.2 382.84 23.008 382.744 22.768C382.648 22.528 382.504 22.24 382.408 22L379.96 15.856C379.864 15.664 379.768 15.376 379.672 15.376C379.576 15.376 379.48 15.52 379.384 15.712C379.24 16 378.856 17.056 378.664 17.488L376.312 23.488C376.216 23.68 376.12 24.016 376.12 24.16C376.12 24.304 376.168 24.352 376.216 24.4C376.36 24.496 376.648 24.496 376.792 24.496ZM406.331 34V33.04C407.099 33.088 408.347 32.896 408.923 32.464C409.643 31.888 409.691 31.024 409.691 30.352V23.632C409.691 23.44 409.643 23.008 409.499 22.912C409.403 22.816 409.019 22.768 408.875 22.768H408.347C408.011 22.768 407.483 22.864 406.859 23.392C405.995 24.16 405.611 25.264 405.131 26.416L404.267 28.48C403.211 30.976 402.155 32.56 400.955 33.472C400.283 33.952 399.179 34.576 397.595 34.576C396.73 34.576 395.867 34.384 395.099 33.904C394.667 33.616 394.091 33.136 393.755 32.8L394.379 32.128C394.619 32.416 394.859 32.56 395.146 32.704C395.387 32.848 395.675 32.944 396.107 32.944C396.923 32.944 397.451 32.512 397.931 31.984C398.603 31.216 399.035 30.208 399.611 29.104L400.715 26.944C401.291 25.792 401.819 24.736 402.779 23.728C403.787 22.672 404.891 22.144 406.427 22C405.659 21.088 404.123 19.216 402.299 16.96C400.859 15.184 399.898 14.032 398.747 13.216C397.979 12.688 396.73 12.064 395.099 11.92V10.96H404.171V11.92C403.691 11.872 403.067 11.968 402.587 12.16C402.059 12.4 401.723 12.688 401.723 13.264C401.723 13.84 401.963 14.368 402.251 14.8C402.635 15.424 403.163 16 404.459 17.728C406.187 19.984 406.859 20.8 407.243 21.136C407.579 21.472 407.867 21.712 408.539 21.712H409.163C409.259 21.712 409.451 21.664 409.547 21.616C409.643 21.52 409.691 21.232 409.691 21.088V15.328C409.691 14.56 409.739 13.408 409.115 12.736C408.635 12.208 407.243 11.872 406.331 11.92V10.96H417.227V11.92C416.027 11.968 415.019 12.064 414.491 12.592C414.203 12.88 413.915 13.456 413.915 14.368V21.088C413.915 21.232 413.963 21.52 414.059 21.616C414.155 21.664 414.347 21.712 414.443 21.712H415.067C415.739 21.712 416.027 21.472 416.363 21.136C416.747 20.8 417.419 19.984 419.147 17.728C420.443 16 420.971 15.424 421.355 14.8C421.643 14.368 421.883 13.84 421.883 13.264C421.883 12.688 421.547 12.4 421.019 12.16C420.539 11.968 419.915 11.872 419.435 11.92V10.96H428.507V11.92C426.875 12.064 425.627 12.688 424.859 13.216C423.707 14.032 422.747 15.184 421.307 16.96C419.483 19.216 417.947 21.088 417.179 22C418.715 22.144 419.819 22.672 420.827 23.728C421.786 24.736 422.315 25.792 422.891 26.944L423.995 29.104C424.571 30.208 425.003 31.216 425.675 31.984C426.155 32.512 426.683 32.944 427.499 32.944C427.931 32.944 428.219 32.848 428.459 32.704C428.747 32.56 428.987 32.416 429.227 32.128L429.851 32.8C429.515 33.136 428.939 33.616 428.507 33.904C427.739 34.384 426.875 34.576 426.011 34.576C424.427 34.576 423.323 33.952 422.651 33.472C421.451 32.56 420.395 30.976 419.339 28.48L418.475 26.416C417.995 25.264 417.611 24.16 416.747 23.392C416.123 22.864 415.595 22.768 415.259 22.768H414.731C414.587 22.768 414.203 22.816 414.107 22.912C413.963 23.008 413.915 23.44 413.915 23.632V30.448C413.915 31.168 414.011 31.984 414.827 32.512C415.355 32.896 416.459 33.04 417.179 33.04V34H406.331ZM429.614 34V33.04C430.718 32.992 431.534 32.512 432.11 31.984C432.59 31.504 433.118 30.736 433.694 29.392L440.462 12.928C440.702 12.352 440.99 11.44 441.566 10.768C441.71 10.624 441.902 10.384 442.142 10.384C442.334 10.384 442.478 10.528 442.622 10.672C442.958 11.056 443.726 12.016 445.454 16.24L450.782 29.056C451.358 30.4 451.886 31.456 452.558 32.08C452.99 32.464 453.854 32.992 454.958 33.04V34H444.734V33.04C445.118 33.04 445.886 32.992 446.414 32.8C446.75 32.704 447.23 32.464 447.23 31.744C447.23 31.552 447.086 30.976 446.99 30.688C446.942 30.496 446.846 30.304 446.75 30.112C446.654 29.824 446.558 29.584 446.462 29.296L445.406 26.608C445.262 26.32 445.118 25.984 444.782 25.792C444.398 25.6 443.87 25.552 443.582 25.552H437.726C436.622 25.552 436.334 26.224 435.95 27.184L434.894 29.968C434.75 30.352 434.558 31.072 434.558 31.504C434.558 31.936 434.702 32.32 435.182 32.608C435.662 32.896 436.814 33.088 437.534 33.04V34H429.614ZM437.87 24.496H443.486C443.678 24.496 444.014 24.448 444.158 24.4C444.206 24.352 444.302 24.256 444.302 24.112C444.302 23.92 444.206 23.776 444.062 23.44C443.966 23.2 443.918 23.008 443.822 22.768C443.726 22.528 443.582 22.24 443.486 22L441.038 15.856C440.942 15.664 440.846 15.376 440.75 15.376C440.654 15.376 440.558 15.52 440.462 15.712C440.318 16 439.934 17.056 439.742 17.488L437.39 23.488C437.294 23.68 437.198 24.016 437.198 24.16C437.198 24.304 437.246 24.352 437.294 24.4C437.438 24.496 437.726 24.496 437.87 24.496Z" fill="#C6A984"/>
<line y1="-0.5" x2="344" y2="-0.5" transform="matrix(1 0 -0.00581365 0.999983 56 64)" stroke="#C6A984"/>
<rect width="12" height="12" rx="1" transform="matrix(0.708588 0.705623 -0.702493 0.71169 228 55)" fill="#C6A984"/>
</svg>
