<svg width="470" height="72" viewBox="0 0 470 72" fill="none" xmlns="http://www.w3.org/2000/svg">
<path d="M0.728 34V33.04C2.072 33.184 4.088 32.704 4.808 31.744C5.432 30.976 5.432 29.536 5.432 27.328V10.384C5.432 4.912 5.336 3.76 4.76 2.752C4.184 1.792 3.32 1.408 1.208 1.408H0.728V0.447997H38.264V1.408H37.928C37.112 1.408 35.288 1.408 34.424 2.368C33.848 3.04 33.656 4.192 33.656 6.208V22.336C33.656 28.24 33.8 29.44 34.088 30.448C34.664 32.56 36.68 33.136 38.264 33.04V34H22.808V33.04C24.248 33.184 26.6 32.8 27.56 31.792C28.616 30.688 28.568 28.816 28.568 27.424V3.136C28.568 2.944 28.568 2.416 28.328 2.128C28.184 1.936 27.8 1.792 26.744 1.792H12.008C11.576 1.792 11.048 1.792 10.808 2.032C10.664 2.176 10.52 2.56 10.52 3.472V27.76C10.52 28.864 10.52 30.784 11.432 31.792C12.296 32.704 14.312 33.088 15.512 33.04V34H0.728ZM46.6888 10.96H54.7048L61.5208 29.008C62.1928 30.832 62.6728 31.504 62.9608 31.84C63.7768 32.8 64.7368 33.04 65.6488 33.04H65.8888V34H55.5688V33.04C55.9528 33.04 56.8648 32.992 57.4888 32.848C57.9688 32.752 58.2568 32.656 58.2568 32.08C58.2568 31.648 58.1128 31.264 57.9208 30.784L51.8728 14.224H51.7768C51.0088 17.584 50.3368 19.648 49.5208 22.144C48.8008 24.304 48.2728 25.984 47.2648 28.384C46.4968 30.256 46.0168 31.168 45.6808 31.744C45.2968 32.416 44.7208 33.232 44.1448 33.712C43.4248 34.336 42.7048 34.576 41.8408 34.576C41.3128 34.576 40.8808 34.48 40.4008 34C40.0168 33.616 39.7767 33.136 39.7767 32.416C39.7767 31.744 39.9688 31.312 40.3048 30.976C40.8808 30.352 41.5048 30.256 41.9368 30.256C42.5608 30.256 43.0888 30.544 43.3768 30.736C43.6168 30.88 43.8568 31.12 44.0488 31.12C44.5288 31.12 45.1528 29.968 45.3448 29.584C45.9208 28.48 46.6408 26.704 47.0728 25.648C47.7928 23.824 48.9448 20.32 49.4728 18.64C50.2408 16 50.3848 15.088 50.3848 14.512C50.3848 13.84 50.2408 13.12 49.5688 12.592C48.7528 11.968 47.2168 11.92 46.6888 11.92V10.96ZM65.3326 34V33.04C66.4366 32.992 67.2526 32.512 67.8286 31.984C68.3086 31.504 68.8366 30.736 69.4126 29.392L76.1806 12.928C76.4206 12.352 76.7086 11.44 77.2846 10.768C77.4286 10.624 77.6206 10.384 77.8606 10.384C78.0526 10.384 78.1966 10.528 78.3406 10.672C78.6766 11.056 79.4446 12.016 81.1726 16.24L86.5006 29.056C87.0766 30.4 87.6046 31.456 88.2766 32.08C88.7086 32.464 89.5726 32.992 90.6766 33.04V34H80.4526V33.04C80.8366 33.04 81.6046 32.992 82.1326 32.8C82.4686 32.704 82.9486 32.464 82.9486 31.744C82.9486 31.552 82.8046 30.976 82.7086 30.688C82.6606 30.496 82.5646 30.304 82.4686 30.112C82.3726 29.824 82.2766 29.584 82.1806 29.296L81.1246 26.608C80.9806 26.32 80.8366 25.984 80.5006 25.792C80.1166 25.6 79.5886 25.552 79.3006 25.552H73.4446C72.3406 25.552 72.0526 26.224 71.6686 27.184L70.6126 29.968C70.4686 30.352 70.2766 31.072 70.2766 31.504C70.2766 31.936 70.4206 32.32 70.9006 32.608C71.3806 32.896 72.5326 33.088 73.2526 33.04V34H65.3326ZM73.5886 24.496H79.2046C79.3966 24.496 79.7326 24.448 79.8766 24.4C79.9246 24.352 80.0206 24.256 80.0206 24.112C80.0206 23.92 79.9246 23.776 79.7806 23.44C79.6846 23.2 79.6366 23.008 79.5406 22.768C79.4446 22.528 79.3006 22.24 79.2046 22L76.7566 15.856C76.6606 15.664 76.5646 15.376 76.4686 15.376C76.3726 15.376 76.2766 15.52 76.1806 15.712C76.0366 16 75.6526 17.056 75.4606 17.488L73.1086 23.488C73.0126 23.68 72.9166 24.016 72.9166 24.16C72.9166 24.304 72.9646 24.352 73.0126 24.4C73.1566 24.496 73.4446 24.496 73.5886 24.496ZM92.411 34V33.04C93.179 33.088 94.427 32.896 95.003 32.464C95.723 31.888 95.771 31.024 95.771 30.352V15.328C95.771 14.56 95.819 13.408 95.195 12.736C94.715 12.208 93.323 11.872 92.411 11.92V10.96H103.355V11.92C102.875 11.92 101.243 11.968 100.619 12.544C100.427 12.736 99.995 13.216 99.995 14.272V20.656C99.995 21.04 100.187 21.232 100.283 21.328C100.475 21.52 100.763 21.52 101.003 21.52H110.411C110.651 21.52 110.987 21.52 111.227 21.28C111.323 21.184 111.515 20.944 111.515 20.464V14.704C111.515 13.984 111.467 13.072 110.891 12.544C110.315 12.016 108.731 11.92 108.155 11.92V10.96H119.099V11.92C118.523 11.92 116.939 12.016 116.363 12.544C115.739 13.12 115.739 14.032 115.739 14.752V28.624C115.739 30.496 115.787 31.648 116.315 32.272C116.939 32.992 118.091 33.04 118.907 33.04H119.099V34H108.155V33.04C109.019 33.04 110.363 32.896 110.891 32.416C111.275 32.08 111.515 31.408 111.515 30.688V23.68C111.515 23.392 111.515 23.152 111.275 22.912C111.131 22.768 110.843 22.672 110.507 22.672H101.099C100.907 22.672 100.523 22.672 100.283 22.864C99.995 23.056 99.995 23.44 99.995 23.584V30.64C99.995 31.12 99.995 31.84 100.667 32.416C101.243 32.896 102.539 33.088 103.355 33.04V34H92.411ZM139.318 34V33.04C140.374 33.136 142.15 32.752 142.678 32.128C143.158 31.552 143.206 30.544 143.206 28.72V13.744C143.206 13.36 143.206 12.736 142.918 12.4C142.678 12.112 142.102 12.016 140.854 12.016C139.414 12.016 137.926 12.112 136.774 12.784C135.622 13.456 134.518 14.992 133.846 16.384L133.078 16.24L134.374 11.392C134.422 11.152 134.566 10.768 134.662 10.528C134.71 10.432 134.758 10.336 134.902 10.336C135.046 10.336 135.19 10.432 135.478 10.576C136.294 10.96 136.87 10.96 137.542 10.96H153.094C153.766 10.96 154.342 10.96 155.158 10.576C155.446 10.432 155.59 10.336 155.734 10.336C155.878 10.336 155.926 10.432 155.974 10.528C156.07 10.768 156.214 11.152 156.262 11.392L157.558 16.24L156.79 16.384C156.118 14.992 155.014 13.456 153.862 12.784C152.758 12.112 151.318 12.016 149.782 12.016C148.534 12.016 148.006 12.112 147.718 12.4C147.43 12.736 147.43 13.36 147.43 13.744V29.44C147.43 30.928 147.478 31.744 147.91 32.272C148.582 33.088 149.878 33.04 150.55 33.04H151.318V34H139.318ZM159.77 34V33.04C160.682 33.088 162.074 32.752 162.554 32.224C163.178 31.552 163.13 30.4 163.13 29.632V14.608C163.13 13.936 163.082 13.072 162.362 12.496C161.786 12.064 160.538 11.872 159.77 11.92V10.96H170.762C172.778 10.96 175.13 11.152 176.954 12.448C178.49 13.504 179.45 15.184 179.45 17.584C179.45 19.744 178.73 21.664 176.762 23.008C175.322 24.016 173.402 24.496 171.578 24.496C170.138 24.496 168.602 24.16 167.354 23.728V29.44C167.354 30.928 167.402 31.744 167.834 32.272C168.506 33.088 169.802 33.04 170.474 33.04H171.29V34H159.77ZM167.354 14.032V22.48C168.122 22.912 169.082 23.248 170.33 23.248C172.058 23.248 173.306 22.624 174.026 21.904C175.274 20.656 175.418 18.688 175.418 17.536C175.418 16.432 175.274 14.896 174.218 13.696C172.97 12.256 171.05 12.016 169.85 12.016C169.178 12.016 168.218 12.064 167.738 12.592C167.402 12.976 167.354 13.504 167.354 14.032ZM182.74 34V33.04C183.604 33.04 184.996 32.848 185.572 32.224C186.148 31.6 186.1 30.448 186.1 29.632V15.28C186.1 14.512 186.1 13.312 185.38 12.592C184.708 11.92 183.7 11.968 183.028 11.968H182.692V10.96H191.188C192.004 10.96 192.82 10.912 193.636 10.912C194.788 10.912 195.988 10.912 197.14 10.864C198.58 10.816 198.772 10.768 199.348 10.768C199.588 10.768 199.828 10.816 200.068 10.912C200.452 11.104 200.548 11.344 200.644 11.632L202.18 15.856L201.508 16.144C200.884 15.28 199.492 13.552 198.388 12.784C197.332 12.064 196.516 12.016 195.604 12.016H192.916C191.62 12.016 191.092 12.16 190.852 12.352C190.372 12.688 190.324 13.168 190.324 13.504V20.608C190.324 20.848 190.372 21.232 190.564 21.52C190.852 21.856 191.092 21.808 191.428 21.808H192.052C193.012 21.808 194.02 21.76 194.884 20.992C195.7 20.224 196.132 18.688 196.132 17.584H197.092C196.996 19.12 196.948 20.896 196.948 22.288C196.948 23.68 196.996 25.456 197.092 26.944H196.132C196.132 25.792 195.7 24.4 195.076 23.776C194.308 23.008 193.204 22.96 192.484 22.96H190.996C190.804 22.96 190.612 22.96 190.468 23.104C190.372 23.248 190.324 23.632 190.324 23.824V31.264C190.324 31.792 190.324 32.272 190.9 32.656C191.236 32.896 191.812 32.944 193.492 32.944H197.86C198.58 32.944 199.348 32.704 199.972 32.32C201.172 31.6 202.228 29.92 202.756 28.672L203.524 28.816C203.332 29.776 202.564 33.232 202.18 33.904C202.084 34.048 201.988 34.192 201.796 34.24C201.652 34.288 201.076 34.336 200.836 34.336C200.404 34.336 200.404 34.288 199.396 34.24C199.156 34.24 198.964 34.24 198.772 34.24C198.388 34.24 197.956 34.192 197.572 34.192C192.436 34 189.604 34 188.548 34H182.74ZM210.521 34V33.04C211.577 33.136 213.353 32.752 213.881 32.128C214.361 31.552 214.409 30.544 214.409 28.72V13.744C214.409 13.36 214.409 12.736 214.121 12.4C213.881 12.112 213.305 12.016 212.057 12.016C210.617 12.016 209.129 12.112 207.977 12.784C206.825 13.456 205.721 14.992 205.049 16.384L204.281 16.24L205.577 11.392C205.625 11.152 205.769 10.768 205.865 10.528C205.913 10.432 205.961 10.336 206.105 10.336C206.249 10.336 206.393 10.432 206.681 10.576C207.497 10.96 208.073 10.96 208.745 10.96H224.297C224.969 10.96 225.545 10.96 226.361 10.576C226.649 10.432 226.793 10.336 226.937 10.336C227.081 10.336 227.129 10.432 227.177 10.528C227.273 10.768 227.417 11.152 227.465 11.392L228.761 16.24L227.993 16.384C227.321 14.992 226.217 13.456 225.065 12.784C223.961 12.112 222.521 12.016 220.985 12.016C219.737 12.016 219.209 12.112 218.921 12.4C218.633 12.736 218.633 13.36 218.633 13.744V29.44C218.633 30.928 218.681 31.744 219.113 32.272C219.785 33.088 221.081 33.04 221.753 33.04H222.521V34H210.521ZM230.974 34V33.04C231.742 33.088 232.99 32.896 233.566 32.464C234.286 31.888 234.334 31.024 234.334 30.352V15.328C234.334 14.56 234.382 13.408 233.758 12.736C233.278 12.208 231.886 11.872 230.974 11.92V10.96H241.918V11.92C241.102 11.872 239.71 12.064 239.182 12.544C238.51 13.168 238.558 14.128 238.558 14.752V21.28C239.518 21.136 240.718 21.04 241.678 21.04C242.782 21.04 245.806 21.088 248.158 22.432C250.27 23.632 251.134 25.36 251.134 27.568C251.134 29.872 250.222 31.408 248.59 32.512C246.574 33.856 244.222 34 242.254 34H230.974ZM238.558 22.432V30.928C238.558 31.504 238.606 31.936 238.942 32.368C239.23 32.704 239.662 32.944 241.054 32.944C242.926 32.944 244.414 32.56 245.422 31.312C246.238 30.304 246.622 28.912 246.622 27.616C246.622 25.792 245.998 24.208 245.038 23.344C243.742 22.144 241.87 22.096 241.006 22.096C240.094 22.096 239.422 22.144 238.558 22.432ZM254.459 34V33.04C255.323 33.04 256.715 32.848 257.291 32.224C257.867 31.6 257.819 30.448 257.819 29.632V15.28C257.819 14.512 257.819 13.312 257.099 12.592C256.427 11.92 255.419 11.968 254.747 11.968H254.411V10.96H262.907C263.723 10.96 264.539 10.912 265.355 10.912C266.507 10.912 267.707 10.912 268.859 10.864C270.299 10.816 270.491 10.768 271.067 10.768C271.307 10.768 271.547 10.816 271.787 10.912C272.171 11.104 272.267 11.344 272.363 11.632L273.899 15.856L273.227 16.144C272.603 15.28 271.211 13.552 270.107 12.784C269.051 12.064 268.235 12.016 267.323 12.016H264.635C263.339 12.016 262.811 12.16 262.571 12.352C262.091 12.688 262.043 13.168 262.043 13.504V20.608C262.043 20.848 262.091 21.232 262.283 21.52C262.571 21.856 262.811 21.808 263.147 21.808H263.771C264.731 21.808 265.739 21.76 266.603 20.992C267.419 20.224 267.851 18.688 267.851 17.584H268.811C268.715 19.12 268.667 20.896 268.667 22.288C268.667 23.68 268.715 25.456 268.811 26.944H267.851C267.851 25.792 267.419 24.4 266.795 23.776C266.027 23.008 264.923 22.96 264.203 22.96H262.715C262.523 22.96 262.331 22.96 262.187 23.104C262.091 23.248 262.043 23.632 262.043 23.824V31.264C262.043 31.792 262.043 32.272 262.619 32.656C262.955 32.896 263.531 32.944 265.211 32.944H269.579C270.299 32.944 271.067 32.704 271.691 32.32C272.891 31.6 273.947 29.92 274.475 28.672L275.243 28.816C275.051 29.776 274.283 33.232 273.899 33.904C273.803 34.048 273.707 34.192 273.515 34.24C273.371 34.288 272.795 34.336 272.555 34.336C272.123 34.336 272.123 34.288 271.115 34.24C270.875 34.24 270.683 34.24 270.491 34.24C270.107 34.24 269.675 34.192 269.291 34.192C264.155 34 261.323 34 260.267 34H254.459ZM277.474 34V33.04C278.338 33.04 279.73 32.848 280.306 32.224C280.882 31.6 280.834 30.448 280.834 29.632V15.28C280.834 14.512 280.834 13.312 280.114 12.592C279.442 11.92 278.434 11.968 277.762 11.968H277.474V10.96H286.21C287.026 10.96 287.842 10.912 288.658 10.912C289.81 10.912 291.01 10.912 292.162 10.864C293.602 10.816 293.794 10.768 294.37 10.768C294.61 10.768 294.85 10.816 295.09 10.912C295.474 11.104 295.57 11.344 295.666 11.632L297.154 16.336L296.386 16.624C295.858 15.616 294.61 13.648 293.41 12.784C292.402 12.064 291.49 12.016 290.626 12.016H287.65C286.354 12.016 285.826 12.16 285.586 12.352C285.106 12.688 285.058 13.168 285.058 13.504V29.44C285.058 30.928 285.106 31.744 285.538 32.272C286.21 33.088 287.506 33.04 288.178 33.04H288.994V34H277.474ZM311.051 10.576C314.603 10.576 317.147 11.824 318.731 13.072C320.891 14.752 323.003 17.68 323.003 22.24C323.003 27.568 320.267 30.592 318.443 32.032C316.091 33.904 313.547 34.576 310.667 34.576C307.259 34.576 304.715 33.616 302.603 31.744C300.875 30.208 298.715 27.376 298.715 22.768C298.715 19.888 299.579 16.288 303.035 13.408C305.243 11.536 307.883 10.576 311.051 10.576ZM310.667 33.52C313.211 33.52 315.035 32.704 316.331 30.832C316.811 30.16 318.203 27.856 318.203 22.432C318.203 20.56 318.059 16.816 316.379 14.368C315.035 12.4 313.115 11.632 311.003 11.632C307.979 11.632 306.251 13.216 305.339 14.656C303.851 16.96 303.515 20.608 303.515 23.104C303.515 28.048 304.763 30.208 305.099 30.736C306.443 32.944 308.363 33.52 310.667 33.52ZM338.898 23.2L339.378 22.336C340.098 22.816 341.298 23.344 342.114 23.344C343.17 23.344 344.082 22.624 344.802 21.904L345.618 21.088C346.53 20.176 347.778 18.88 349.986 18.88C351.762 18.88 353.442 19.984 354.354 20.704C354.258 18.688 353.49 15.664 351.954 13.984C350.85 12.736 348.93 11.632 346.29 11.632C344.034 11.632 342.402 12.688 341.442 13.648C340.626 14.464 339.81 15.76 339.282 17.008L338.61 16.864L339.09 11.488C339.378 11.584 339.666 11.632 340.05 11.632C340.962 11.632 342.306 11.248 342.69 11.152C343.794 10.816 344.754 10.576 346.722 10.576C348.69 10.576 350.898 10.864 352.962 11.92C356.85 13.888 359.058 17.92 359.058 22.72C359.058 25.552 358.29 29.92 354.162 32.56C351.666 34.144 348.93 34.576 346.434 34.576C344.898 34.576 343.074 34.384 341.01 34.096C340.386 34 339.906 33.952 339.426 33.76C338.994 33.568 338.898 33.424 338.802 32.464C338.754 32.176 338.754 31.888 338.706 31.6C338.658 31.216 338.658 30.832 338.61 30.448C338.562 30.208 338.562 29.92 338.514 29.68C338.514 29.536 338.466 29.392 338.466 29.248C338.466 29.104 338.418 28.96 338.418 28.816C338.37 28.528 338.37 28.24 338.322 27.952L338.994 27.808C339.57 29.008 340.578 30.64 341.538 31.6C342.882 32.944 344.418 33.52 346.674 33.52C348.978 33.52 350.754 32.944 352.194 31.072C353.874 28.912 354.642 24.88 354.402 22.048C353.682 21.568 352.434 21.088 351.618 21.088C350.178 21.088 349.362 22.048 348.642 22.768L347.922 23.488C346.722 24.688 345.522 25.456 344.082 25.456C343.026 25.456 342.018 25.024 341.154 24.544C340.578 24.208 340.05 23.872 338.898 23.2ZM366.896 34V33.04C367.952 33.136 369.728 32.752 370.256 32.128C370.736 31.552 370.784 30.544 370.784 28.72V13.744C370.784 13.36 370.784 12.736 370.496 12.4C370.256 12.112 369.68 12.016 368.432 12.016C366.992 12.016 365.504 12.112 364.352 12.784C363.2 13.456 362.096 14.992 361.424 16.384L360.656 16.24L361.952 11.392C362 11.152 362.144 10.768 362.24 10.528C362.288 10.432 362.336 10.336 362.48 10.336C362.624 10.336 362.768 10.432 363.056 10.576C363.872 10.96 364.448 10.96 365.12 10.96H380.672C381.344 10.96 381.92 10.96 382.736 10.576C383.024 10.432 383.168 10.336 383.312 10.336C383.456 10.336 383.504 10.432 383.552 10.528C383.648 10.768 383.792 11.152 383.84 11.392L385.136 16.24L384.368 16.384C383.696 14.992 382.592 13.456 381.44 12.784C380.336 12.112 378.896 12.016 377.36 12.016C376.112 12.016 375.584 12.112 375.296 12.4C375.008 12.736 375.008 13.36 375.008 13.744V29.44C375.008 30.928 375.056 31.744 375.488 32.272C376.16 33.088 377.456 33.04 378.128 33.04H378.896V34H366.896ZM383.38 34V33.04C384.484 32.992 385.3 32.512 385.876 31.984C386.355 31.504 386.884 30.736 387.46 29.392L394.228 12.928C394.468 12.352 394.756 11.44 395.332 10.768C395.476 10.624 395.668 10.384 395.908 10.384C396.1 10.384 396.244 10.528 396.388 10.672C396.724 11.056 397.492 12.016 399.22 16.24L404.548 29.056C405.124 30.4 405.652 31.456 406.324 32.08C406.756 32.464 407.62 32.992 408.724 33.04V34H398.5V33.04C398.884 33.04 399.652 32.992 400.18 32.8C400.516 32.704 400.996 32.464 400.996 31.744C400.996 31.552 400.852 30.976 400.756 30.688C400.708 30.496 400.612 30.304 400.516 30.112C400.42 29.824 400.324 29.584 400.228 29.296L399.172 26.608C399.028 26.32 398.884 25.984 398.548 25.792C398.164 25.6 397.636 25.552 397.348 25.552H391.492C390.388 25.552 390.1 26.224 389.716 27.184L388.66 29.968C388.516 30.352 388.324 31.072 388.324 31.504C388.324 31.936 388.468 32.32 388.948 32.608C389.428 32.896 390.58 33.088 391.3 33.04V34H383.38ZM391.636 24.496H397.252C397.444 24.496 397.78 24.448 397.924 24.4C397.972 24.352 398.068 24.256 398.068 24.112C398.068 23.92 397.972 23.776 397.828 23.44C397.732 23.2 397.684 23.008 397.588 22.768C397.492 22.528 397.348 22.24 397.252 22L394.804 15.856C394.708 15.664 394.612 15.376 394.516 15.376C394.42 15.376 394.324 15.52 394.228 15.712C394.084 16 393.7 17.056 393.508 17.488L391.156 23.488C391.06 23.68 390.964 24.016 390.964 24.16C390.964 24.304 391.012 24.352 391.06 24.4C391.204 24.496 391.492 24.496 391.636 24.496ZM421.174 34V33.04C421.942 33.088 423.19 32.896 423.766 32.464C424.486 31.888 424.534 31.024 424.534 30.352V23.632C424.534 23.44 424.486 23.008 424.342 22.912C424.246 22.816 423.862 22.768 423.718 22.768H423.19C422.854 22.768 422.326 22.864 421.702 23.392C420.838 24.16 420.454 25.264 419.974 26.416L419.11 28.48C418.054 30.976 416.998 32.56 415.798 33.472C415.126 33.952 414.022 34.576 412.438 34.576C411.574 34.576 410.71 34.384 409.942 33.904C409.51 33.616 408.934 33.136 408.598 32.8L409.222 32.128C409.462 32.416 409.702 32.56 409.99 32.704C410.23 32.848 410.518 32.944 410.95 32.944C411.766 32.944 412.294 32.512 412.774 31.984C413.446 31.216 413.878 30.208 414.454 29.104L415.558 26.944C416.134 25.792 416.662 24.736 417.622 23.728C418.63 22.672 419.734 22.144 421.27 22C420.502 21.088 418.966 19.216 417.142 16.96C415.702 15.184 414.742 14.032 413.59 13.216C412.822 12.688 411.574 12.064 409.942 11.92V10.96H419.014V11.92C418.534 11.872 417.91 11.968 417.43 12.16C416.902 12.4 416.566 12.688 416.566 13.264C416.566 13.84 416.806 14.368 417.094 14.8C417.478 15.424 418.006 16 419.302 17.728C421.03 19.984 421.702 20.8 422.086 21.136C422.422 21.472 422.71 21.712 423.382 21.712H424.006C424.102 21.712 424.294 21.664 424.39 21.616C424.486 21.52 424.534 21.232 424.534 21.088V15.328C424.534 14.56 424.582 13.408 423.958 12.736C423.478 12.208 422.086 11.872 421.174 11.92V10.96H432.07V11.92C430.87 11.968 429.862 12.064 429.334 12.592C429.046 12.88 428.758 13.456 428.758 14.368V21.088C428.758 21.232 428.806 21.52 428.902 21.616C428.998 21.664 429.19 21.712 429.286 21.712H429.91C430.582 21.712 430.87 21.472 431.206 21.136C431.59 20.8 432.262 19.984 433.99 17.728C435.286 16 435.814 15.424 436.198 14.8C436.486 14.368 436.726 13.84 436.726 13.264C436.726 12.688 436.39 12.4 435.862 12.16C435.382 11.968 434.758 11.872 434.278 11.92V10.96H443.35V11.92C441.718 12.064 440.47 12.688 439.702 13.216C438.55 14.032 437.59 15.184 436.15 16.96C434.326 19.216 432.79 21.088 432.022 22C433.558 22.144 434.662 22.672 435.67 23.728C436.63 24.736 437.158 25.792 437.734 26.944L438.838 29.104C439.414 30.208 439.846 31.216 440.518 31.984C440.998 32.512 441.526 32.944 442.342 32.944C442.774 32.944 443.062 32.848 443.302 32.704C443.59 32.56 443.83 32.416 444.07 32.128L444.694 32.8C444.358 33.136 443.782 33.616 443.35 33.904C442.582 34.384 441.718 34.576 440.854 34.576C439.27 34.576 438.166 33.952 437.494 33.472C436.294 32.56 435.238 30.976 434.182 28.48L433.318 26.416C432.838 25.264 432.454 24.16 431.59 23.392C430.966 22.864 430.438 22.768 430.102 22.768H429.574C429.43 22.768 429.046 22.816 428.95 22.912C428.806 23.008 428.758 23.44 428.758 23.632V30.448C428.758 31.168 428.854 31.984 429.67 32.512C430.198 32.896 431.302 33.04 432.022 33.04V34H421.174ZM444.458 34V33.04C445.562 32.992 446.378 32.512 446.954 31.984C447.434 31.504 447.962 30.736 448.538 29.392L455.306 12.928C455.546 12.352 455.834 11.44 456.41 10.768C456.554 10.624 456.746 10.384 456.986 10.384C457.178 10.384 457.322 10.528 457.466 10.672C457.802 11.056 458.57 12.016 460.298 16.24L465.626 29.056C466.202 30.4 466.73 31.456 467.402 32.08C467.834 32.464 468.698 32.992 469.802 33.04V34H459.578V33.04C459.962 33.04 460.73 32.992 461.258 32.8C461.594 32.704 462.074 32.464 462.074 31.744C462.074 31.552 461.93 30.976 461.834 30.688C461.786 30.496 461.69 30.304 461.594 30.112C461.498 29.824 461.402 29.584 461.306 29.296L460.25 26.608C460.106 26.32 459.962 25.984 459.626 25.792C459.242 25.6 458.714 25.552 458.426 25.552H452.57C451.466 25.552 451.178 26.224 450.794 27.184L449.738 29.968C449.594 30.352 449.402 31.072 449.402 31.504C449.402 31.936 449.546 32.32 450.026 32.608C450.506 32.896 451.658 33.088 452.378 33.04V34H444.458ZM452.714 24.496H458.33C458.522 24.496 458.858 24.448 459.002 24.4C459.05 24.352 459.146 24.256 459.146 24.112C459.146 23.92 459.05 23.776 458.906 23.44C458.81 23.2 458.762 23.008 458.666 22.768C458.57 22.528 458.426 22.24 458.33 22L455.882 15.856C455.786 15.664 455.69 15.376 455.594 15.376C455.498 15.376 455.402 15.52 455.306 15.712C455.162 16 454.778 17.056 454.586 17.488L452.234 23.488C452.138 23.68 452.042 24.016 452.042 24.16C452.042 24.304 452.09 24.352 452.138 24.4C452.282 24.496 452.57 24.496 452.714 24.496Z" fill="#C6A984"/>
<line y1="-0.5" x2="344" y2="-0.5" transform="matrix(1 0 -0.00581631 0.999983 63 64)" stroke="#C6A984"/>
<rect width="12" height="12" rx="1" transform="matrix(0.708588 0.705623 -0.702493 0.71169 235 55)" fill="#C6A984"/>
</svg>
