<svg width="456" height="72" viewBox="0 0 456 72" fill="none" xmlns="http://www.w3.org/2000/svg">
<path d="M1.728 34V33.04C3.072 33.184 5.088 32.704 5.808 31.744C6.432 30.976 6.432 29.536 6.432 27.328V10.384C6.432 4.912 6.336 3.76 5.76 2.752C5.184 1.792 4.32 1.408 2.208 1.408H1.728V0.447997H39.264V1.408H38.928C38.112 1.408 36.288 1.408 35.424 2.368C34.848 3.04 34.656 4.192 34.656 6.208V22.336C34.656 28.24 34.8 29.44 35.088 30.448C35.664 32.56 37.68 33.136 39.264 33.04V34H23.808V33.04C25.248 33.184 27.6 32.8 28.56 31.792C29.616 30.688 29.568 28.816 29.568 27.424V3.136C29.568 2.944 29.568 2.416 29.328 2.128C29.184 1.936 28.8 1.792 27.744 1.792H13.008C12.576 1.792 12.048 1.792 11.808 2.032C11.664 2.176 11.52 2.56 11.52 3.472V27.76C11.52 28.864 11.52 30.784 12.432 31.792C13.296 32.704 15.312 33.088 16.512 33.04V34H1.728ZM47.6888 10.96H55.7048L62.5208 29.008C63.1928 30.832 63.6728 31.504 63.9608 31.84C64.7768 32.8 65.7368 33.04 66.6488 33.04H66.8888V34H56.5688V33.04C56.9528 33.04 57.8648 32.992 58.4888 32.848C58.9688 32.752 59.2568 32.656 59.2568 32.08C59.2568 31.648 59.1128 31.264 58.9208 30.784L52.8728 14.224H52.7768C52.0088 17.584 51.3368 19.648 50.5208 22.144C49.8008 24.304 49.2728 25.984 48.2648 28.384C47.4968 30.256 47.0168 31.168 46.6808 31.744C46.2968 32.416 45.7208 33.232 45.1448 33.712C44.4248 34.336 43.7048 34.576 42.8408 34.576C42.3128 34.576 41.8808 34.48 41.4008 34C41.0168 33.616 40.7767 33.136 40.7767 32.416C40.7767 31.744 40.9688 31.312 41.3048 30.976C41.8808 30.352 42.5048 30.256 42.9368 30.256C43.5608 30.256 44.0888 30.544 44.3768 30.736C44.6168 30.88 44.8568 31.12 45.0488 31.12C45.5288 31.12 46.1528 29.968 46.3448 29.584C46.9208 28.48 47.6408 26.704 48.0728 25.648C48.7928 23.824 49.9448 20.32 50.4728 18.64C51.2408 16 51.3848 15.088 51.3848 14.512C51.3848 13.84 51.2408 13.12 50.5688 12.592C49.7528 11.968 48.2168 11.92 47.6888 11.92V10.96ZM66.3326 34V33.04C67.4366 32.992 68.2526 32.512 68.8286 31.984C69.3086 31.504 69.8366 30.736 70.4126 29.392L77.1806 12.928C77.4206 12.352 77.7086 11.44 78.2846 10.768C78.4286 10.624 78.6206 10.384 78.8606 10.384C79.0526 10.384 79.1966 10.528 79.3406 10.672C79.6766 11.056 80.4446 12.016 82.1726 16.24L87.5006 29.056C88.0766 30.4 88.6046 31.456 89.2766 32.08C89.7086 32.464 90.5726 32.992 91.6766 33.04V34H81.4526V33.04C81.8366 33.04 82.6046 32.992 83.1326 32.8C83.4686 32.704 83.9486 32.464 83.9486 31.744C83.9486 31.552 83.8046 30.976 83.7086 30.688C83.6606 30.496 83.5646 30.304 83.4686 30.112C83.3726 29.824 83.2766 29.584 83.1806 29.296L82.1246 26.608C81.9806 26.32 81.8366 25.984 81.5006 25.792C81.1166 25.6 80.5886 25.552 80.3006 25.552H74.4446C73.3406 25.552 73.0526 26.224 72.6686 27.184L71.6126 29.968C71.4686 30.352 71.2766 31.072 71.2766 31.504C71.2766 31.936 71.4206 32.32 71.9006 32.608C72.3806 32.896 73.5326 33.088 74.2526 33.04V34H66.3326ZM74.5886 24.496H80.2046C80.3966 24.496 80.7326 24.448 80.8766 24.4C80.9246 24.352 81.0206 24.256 81.0206 24.112C81.0206 23.92 80.9246 23.776 80.7806 23.44C80.6846 23.2 80.6366 23.008 80.5406 22.768C80.4446 22.528 80.3006 22.24 80.2046 22L77.7566 15.856C77.6606 15.664 77.5646 15.376 77.4686 15.376C77.3726 15.376 77.2766 15.52 77.1806 15.712C77.0366 16 76.6526 17.056 76.4606 17.488L74.1086 23.488C74.0126 23.68 73.9166 24.016 73.9166 24.16C73.9166 24.304 73.9646 24.352 74.0126 24.4C74.1566 24.496 74.4446 24.496 74.5886 24.496ZM93.411 34V33.04C94.179 33.088 95.427 32.896 96.003 32.464C96.723 31.888 96.771 31.024 96.771 30.352V15.328C96.771 14.56 96.819 13.408 96.195 12.736C95.715 12.208 94.323 11.872 93.411 11.92V10.96H104.355V11.92C103.875 11.92 102.243 11.968 101.619 12.544C101.427 12.736 100.995 13.216 100.995 14.272V20.656C100.995 21.04 101.187 21.232 101.283 21.328C101.475 21.52 101.763 21.52 102.003 21.52H111.411C111.651 21.52 111.987 21.52 112.227 21.28C112.323 21.184 112.515 20.944 112.515 20.464V14.704C112.515 13.984 112.467 13.072 111.891 12.544C111.315 12.016 109.731 11.92 109.155 11.92V10.96H120.099V11.92C119.523 11.92 117.939 12.016 117.363 12.544C116.739 13.12 116.739 14.032 116.739 14.752V28.624C116.739 30.496 116.787 31.648 117.315 32.272C117.939 32.992 119.091 33.04 119.907 33.04H120.099V34H109.155V33.04C110.019 33.04 111.363 32.896 111.891 32.416C112.275 32.08 112.515 31.408 112.515 30.688V23.68C112.515 23.392 112.515 23.152 112.275 22.912C112.131 22.768 111.843 22.672 111.507 22.672H102.099C101.907 22.672 101.523 22.672 101.283 22.864C100.995 23.056 100.995 23.44 100.995 23.584V30.64C100.995 31.12 100.995 31.84 101.667 32.416C102.243 32.896 103.539 33.088 104.355 33.04V34H93.411ZM134.942 34V33.04C135.71 33.088 136.958 32.896 137.534 32.464C138.254 31.888 138.302 31.024 138.302 30.352V15.328C138.302 14.56 138.35 13.408 137.726 12.736C137.246 12.208 135.854 11.872 134.942 11.92V10.96H146.75C147.326 10.96 150.542 11.008 152.414 12.16C153.518 12.832 154.622 14.224 154.622 16.336C154.622 18.064 153.854 19.264 152.606 20.176C151.55 20.944 150.158 21.472 148.862 21.664V21.76C150.302 22 152.03 22.576 153.23 23.392C154.862 24.496 155.678 26.032 155.678 28.048C155.678 30.304 154.622 31.696 153.374 32.56C151.502 33.856 148.862 34 147.038 34H134.942ZM142.526 13.696V19.936C142.526 20.224 142.574 20.752 142.766 20.992C143.006 21.328 143.438 21.328 143.726 21.328H145.262C146.462 21.328 148.238 20.992 149.342 19.696C149.822 19.12 150.398 18.064 150.398 16.48C150.398 14.848 149.87 13.744 148.958 13.024C147.95 12.208 146.654 12.016 145.406 12.016C144.062 12.016 143.486 12.16 143.102 12.4C142.526 12.784 142.526 13.264 142.526 13.696ZM142.526 23.68V30.976C142.526 31.36 142.526 32.128 142.91 32.512C143.054 32.608 143.438 32.944 144.83 32.944C146.03 32.944 147.758 32.704 148.958 31.984C150.062 31.312 151.166 30.016 151.166 27.76C151.166 25.36 150.014 24.112 149.006 23.44C147.758 22.624 146.27 22.384 144.782 22.384C143.486 22.384 143.054 22.432 142.814 22.672C142.526 22.96 142.526 23.44 142.526 23.68ZM163.709 34V33.04C164.765 33.136 166.541 32.752 167.069 32.128C167.549 31.552 167.597 30.544 167.597 28.72V13.744C167.597 13.36 167.597 12.736 167.309 12.4C167.069 12.112 166.493 12.016 165.245 12.016C163.805 12.016 162.317 12.112 161.165 12.784C160.013 13.456 158.909 14.992 158.237 16.384L157.469 16.24L158.765 11.392C158.813 11.152 158.957 10.768 159.053 10.528C159.101 10.432 159.149 10.336 159.293 10.336C159.437 10.336 159.581 10.432 159.869 10.576C160.685 10.96 161.261 10.96 161.933 10.96H177.485C178.157 10.96 178.733 10.96 179.549 10.576C179.837 10.432 179.981 10.336 180.125 10.336C180.269 10.336 180.317 10.432 180.365 10.528C180.461 10.768 180.605 11.152 180.653 11.392L181.949 16.24L181.181 16.384C180.509 14.992 179.405 13.456 178.253 12.784C177.149 12.112 175.709 12.016 174.173 12.016C172.925 12.016 172.397 12.112 172.109 12.4C171.821 12.736 171.821 13.36 171.821 13.744V29.44C171.821 30.928 171.869 31.744 172.301 32.272C172.973 33.088 174.269 33.04 174.941 33.04H175.709V34H163.709ZM196.082 10.576C199.634 10.576 202.178 11.824 203.762 13.072C205.922 14.752 208.034 17.68 208.034 22.24C208.034 27.568 205.298 30.592 203.474 32.032C201.122 33.904 198.578 34.576 195.698 34.576C192.29 34.576 189.746 33.616 187.634 31.744C185.906 30.208 183.746 27.376 183.746 22.768C183.746 19.888 184.61 16.288 188.066 13.408C190.274 11.536 192.914 10.576 196.082 10.576ZM195.698 33.52C198.242 33.52 200.066 32.704 201.362 30.832C201.842 30.16 203.234 27.856 203.234 22.432C203.234 20.56 203.09 16.816 201.41 14.368C200.066 12.4 198.146 11.632 196.034 11.632C193.01 11.632 191.282 13.216 190.37 14.656C188.882 16.96 188.546 20.608 188.546 23.104C188.546 28.048 189.794 30.208 190.13 30.736C191.474 32.944 193.394 33.52 195.698 33.52ZM211.395 34V33.04C212.307 33.088 213.699 32.752 214.179 32.224C214.803 31.552 214.755 30.4 214.755 29.632V14.608C214.755 13.936 214.707 13.072 213.987 12.496C213.411 12.064 212.163 11.872 211.395 11.92V10.96H222.387C224.403 10.96 226.755 11.152 228.579 12.448C230.115 13.504 231.075 15.184 231.075 17.584C231.075 19.744 230.355 21.664 228.387 23.008C226.947 24.016 225.027 24.496 223.203 24.496C221.763 24.496 220.227 24.16 218.979 23.728V29.44C218.979 30.928 219.027 31.744 219.459 32.272C220.131 33.088 221.427 33.04 222.099 33.04H222.915V34H211.395ZM218.979 14.032V22.48C219.747 22.912 220.707 23.248 221.955 23.248C223.683 23.248 224.931 22.624 225.651 21.904C226.899 20.656 227.043 18.688 227.043 17.536C227.043 16.432 226.899 14.896 225.843 13.696C224.595 12.256 222.675 12.016 221.475 12.016C220.803 12.016 219.843 12.064 219.363 12.592C219.027 12.976 218.979 13.504 218.979 14.032ZM246.941 10.576C250.493 10.576 253.037 11.824 254.621 13.072C256.781 14.752 258.893 17.68 258.893 22.24C258.893 27.568 256.157 30.592 254.333 32.032C251.981 33.904 249.437 34.576 246.557 34.576C243.149 34.576 240.605 33.616 238.493 31.744C236.765 30.208 234.605 27.376 234.605 22.768C234.605 19.888 235.469 16.288 238.925 13.408C241.133 11.536 243.773 10.576 246.941 10.576ZM246.557 33.52C249.101 33.52 250.925 32.704 252.221 30.832C252.701 30.16 254.093 27.856 254.093 22.432C254.093 20.56 253.949 16.816 252.269 14.368C250.925 12.4 249.005 11.632 246.893 11.632C243.869 11.632 242.141 13.216 241.229 14.656C239.741 16.96 239.405 20.608 239.405 23.104C239.405 28.048 240.653 30.208 240.989 30.736C242.333 32.944 244.253 33.52 246.557 33.52ZM262.255 34V33.04C263.119 33.04 264.511 32.848 265.087 32.224C265.663 31.6 265.615 30.448 265.615 29.632V15.28C265.615 14.512 265.615 13.312 264.895 12.592C264.223 11.92 263.215 11.968 262.543 11.968H262.255V10.96H270.991C271.807 10.96 272.623 10.912 273.439 10.912C274.591 10.912 275.791 10.912 276.943 10.864C278.383 10.816 278.575 10.768 279.151 10.768C279.391 10.768 279.631 10.816 279.871 10.912C280.255 11.104 280.351 11.344 280.447 11.632L281.935 16.336L281.167 16.624C280.639 15.616 279.391 13.648 278.191 12.784C277.183 12.064 276.271 12.016 275.407 12.016H272.431C271.135 12.016 270.607 12.16 270.367 12.352C269.887 12.688 269.839 13.168 269.839 13.504V29.44C269.839 30.928 269.887 31.744 270.319 32.272C270.991 33.088 272.287 33.04 272.959 33.04H273.775V34H262.255ZM295.832 10.576C299.384 10.576 301.928 11.824 303.512 13.072C305.672 14.752 307.784 17.68 307.784 22.24C307.784 27.568 305.048 30.592 303.224 32.032C300.872 33.904 298.328 34.576 295.448 34.576C292.04 34.576 289.496 33.616 287.384 31.744C285.656 30.208 283.496 27.376 283.496 22.768C283.496 19.888 284.36 16.288 287.816 13.408C290.024 11.536 292.664 10.576 295.832 10.576ZM295.448 33.52C297.992 33.52 299.816 32.704 301.112 30.832C301.592 30.16 302.984 27.856 302.984 22.432C302.984 20.56 302.84 16.816 301.16 14.368C299.816 12.4 297.896 11.632 295.784 11.632C292.76 11.632 291.032 13.216 290.12 14.656C288.632 16.96 288.296 20.608 288.296 23.104C288.296 28.048 289.544 30.208 289.88 30.736C291.224 32.944 293.144 33.52 295.448 33.52ZM323.679 23.2L324.159 22.336C324.879 22.816 326.079 23.344 326.895 23.344C327.951 23.344 328.863 22.624 329.583 21.904L330.399 21.088C331.311 20.176 332.559 18.88 334.767 18.88C336.543 18.88 338.223 19.984 339.135 20.704C339.039 18.688 338.271 15.664 336.735 13.984C335.631 12.736 333.711 11.632 331.071 11.632C328.815 11.632 327.183 12.688 326.223 13.648C325.407 14.464 324.591 15.76 324.063 17.008L323.391 16.864L323.871 11.488C324.159 11.584 324.447 11.632 324.831 11.632C325.743 11.632 327.087 11.248 327.471 11.152C328.575 10.816 329.535 10.576 331.503 10.576C333.471 10.576 335.679 10.864 337.743 11.92C341.631 13.888 343.839 17.92 343.839 22.72C343.839 25.552 343.071 29.92 338.943 32.56C336.447 34.144 333.711 34.576 331.215 34.576C329.679 34.576 327.855 34.384 325.791 34.096C325.167 34 324.687 33.952 324.207 33.76C323.775 33.568 323.679 33.424 323.583 32.464C323.535 32.176 323.535 31.888 323.487 31.6C323.439 31.216 323.439 30.832 323.391 30.448C323.343 30.208 323.343 29.92 323.295 29.68C323.295 29.536 323.247 29.392 323.247 29.248C323.247 29.104 323.199 28.96 323.199 28.816C323.151 28.528 323.151 28.24 323.103 27.952L323.775 27.808C324.351 29.008 325.359 30.64 326.319 31.6C327.663 32.944 329.199 33.52 331.455 33.52C333.759 33.52 335.535 32.944 336.975 31.072C338.655 28.912 339.423 24.88 339.183 22.048C338.463 21.568 337.215 21.088 336.399 21.088C334.959 21.088 334.143 22.048 333.423 22.768L332.703 23.488C331.503 24.688 330.303 25.456 328.863 25.456C327.807 25.456 326.799 25.024 325.935 24.544C325.359 24.208 324.831 23.872 323.679 23.2ZM351.678 34V33.04C352.734 33.136 354.51 32.752 355.038 32.128C355.518 31.552 355.566 30.544 355.566 28.72V13.744C355.566 13.36 355.566 12.736 355.278 12.4C355.038 12.112 354.462 12.016 353.214 12.016C351.774 12.016 350.286 12.112 349.134 12.784C347.982 13.456 346.878 14.992 346.206 16.384L345.438 16.24L346.734 11.392C346.782 11.152 346.926 10.768 347.022 10.528C347.07 10.432 347.118 10.336 347.262 10.336C347.406 10.336 347.55 10.432 347.838 10.576C348.654 10.96 349.23 10.96 349.902 10.96H365.454C366.126 10.96 366.702 10.96 367.518 10.576C367.806 10.432 367.95 10.336 368.094 10.336C368.238 10.336 368.286 10.432 368.334 10.528C368.43 10.768 368.574 11.152 368.622 11.392L369.918 16.24L369.15 16.384C368.478 14.992 367.374 13.456 366.222 12.784C365.118 12.112 363.678 12.016 362.142 12.016C360.894 12.016 360.366 12.112 360.078 12.4C359.79 12.736 359.79 13.36 359.79 13.744V29.44C359.79 30.928 359.838 31.744 360.27 32.272C360.942 33.088 362.238 33.04 362.91 33.04H363.678V34H351.678ZM368.161 34V33.04C369.265 32.992 370.081 32.512 370.657 31.984C371.137 31.504 371.665 30.736 372.241 29.392L379.009 12.928C379.249 12.352 379.537 11.44 380.113 10.768C380.257 10.624 380.449 10.384 380.689 10.384C380.881 10.384 381.025 10.528 381.169 10.672C381.505 11.056 382.273 12.016 384.001 16.24L389.329 29.056C389.905 30.4 390.433 31.456 391.105 32.08C391.537 32.464 392.401 32.992 393.505 33.04V34H383.281V33.04C383.665 33.04 384.433 32.992 384.961 32.8C385.297 32.704 385.777 32.464 385.777 31.744C385.777 31.552 385.633 30.976 385.537 30.688C385.489 30.496 385.393 30.304 385.297 30.112C385.201 29.824 385.105 29.584 385.009 29.296L383.953 26.608C383.809 26.32 383.665 25.984 383.329 25.792C382.945 25.6 382.417 25.552 382.129 25.552H376.273C375.169 25.552 374.881 26.224 374.497 27.184L373.441 29.968C373.297 30.352 373.105 31.072 373.105 31.504C373.105 31.936 373.249 32.32 373.729 32.608C374.209 32.896 375.361 33.088 376.081 33.04V34H368.161ZM376.417 24.496H382.033C382.225 24.496 382.561 24.448 382.705 24.4C382.753 24.352 382.849 24.256 382.849 24.112C382.849 23.92 382.753 23.776 382.609 23.44C382.513 23.2 382.465 23.008 382.369 22.768C382.273 22.528 382.129 22.24 382.033 22L379.585 15.856C379.489 15.664 379.393 15.376 379.297 15.376C379.201 15.376 379.105 15.52 379.009 15.712C378.865 16 378.481 17.056 378.289 17.488L375.937 23.488C375.841 23.68 375.745 24.016 375.745 24.16C375.745 24.304 375.793 24.352 375.841 24.4C375.985 24.496 376.273 24.496 376.417 24.496ZM405.956 34V33.04C406.724 33.088 407.972 32.896 408.548 32.464C409.268 31.888 409.316 31.024 409.316 30.352V23.632C409.316 23.44 409.268 23.008 409.124 22.912C409.028 22.816 408.644 22.768 408.5 22.768H407.972C407.636 22.768 407.108 22.864 406.484 23.392C405.62 24.16 405.236 25.264 404.756 26.416L403.892 28.48C402.836 30.976 401.78 32.56 400.58 33.472C399.908 33.952 398.804 34.576 397.22 34.576C396.355 34.576 395.492 34.384 394.724 33.904C394.292 33.616 393.716 33.136 393.38 32.8L394.004 32.128C394.244 32.416 394.484 32.56 394.771 32.704C395.012 32.848 395.3 32.944 395.732 32.944C396.548 32.944 397.076 32.512 397.556 31.984C398.228 31.216 398.66 30.208 399.236 29.104L400.34 26.944C400.916 25.792 401.444 24.736 402.404 23.728C403.412 22.672 404.516 22.144 406.052 22C405.284 21.088 403.748 19.216 401.924 16.96C400.484 15.184 399.523 14.032 398.372 13.216C397.604 12.688 396.355 12.064 394.724 11.92V10.96H403.796V11.92C403.316 11.872 402.692 11.968 402.212 12.16C401.684 12.4 401.348 12.688 401.348 13.264C401.348 13.84 401.588 14.368 401.876 14.8C402.26 15.424 402.788 16 404.084 17.728C405.812 19.984 406.484 20.8 406.868 21.136C407.204 21.472 407.492 21.712 408.164 21.712H408.788C408.884 21.712 409.076 21.664 409.172 21.616C409.268 21.52 409.316 21.232 409.316 21.088V15.328C409.316 14.56 409.364 13.408 408.74 12.736C408.26 12.208 406.868 11.872 405.956 11.92V10.96H416.852V11.92C415.652 11.968 414.644 12.064 414.116 12.592C413.828 12.88 413.54 13.456 413.54 14.368V21.088C413.54 21.232 413.588 21.52 413.684 21.616C413.78 21.664 413.972 21.712 414.068 21.712H414.692C415.364 21.712 415.652 21.472 415.988 21.136C416.372 20.8 417.044 19.984 418.772 17.728C420.068 16 420.596 15.424 420.98 14.8C421.268 14.368 421.508 13.84 421.508 13.264C421.508 12.688 421.172 12.4 420.644 12.16C420.164 11.968 419.54 11.872 419.06 11.92V10.96H428.132V11.92C426.5 12.064 425.252 12.688 424.484 13.216C423.332 14.032 422.372 15.184 420.932 16.96C419.108 19.216 417.572 21.088 416.804 22C418.34 22.144 419.444 22.672 420.452 23.728C421.411 24.736 421.94 25.792 422.516 26.944L423.62 29.104C424.196 30.208 424.628 31.216 425.3 31.984C425.78 32.512 426.308 32.944 427.124 32.944C427.556 32.944 427.844 32.848 428.084 32.704C428.372 32.56 428.612 32.416 428.852 32.128L429.476 32.8C429.14 33.136 428.564 33.616 428.132 33.904C427.364 34.384 426.5 34.576 425.636 34.576C424.052 34.576 422.948 33.952 422.276 33.472C421.076 32.56 420.02 30.976 418.964 28.48L418.1 26.416C417.62 25.264 417.236 24.16 416.372 23.392C415.748 22.864 415.22 22.768 414.884 22.768H414.356C414.212 22.768 413.828 22.816 413.732 22.912C413.588 23.008 413.54 23.44 413.54 23.632V30.448C413.54 31.168 413.636 31.984 414.452 32.512C414.98 32.896 416.084 33.04 416.804 33.04V34H405.956ZM429.239 34V33.04C430.343 32.992 431.159 32.512 431.735 31.984C432.215 31.504 432.743 30.736 433.319 29.392L440.087 12.928C440.327 12.352 440.615 11.44 441.191 10.768C441.335 10.624 441.527 10.384 441.767 10.384C441.959 10.384 442.103 10.528 442.247 10.672C442.583 11.056 443.351 12.016 445.079 16.24L450.407 29.056C450.983 30.4 451.511 31.456 452.183 32.08C452.615 32.464 453.479 32.992 454.583 33.04V34H444.359V33.04C444.743 33.04 445.511 32.992 446.039 32.8C446.375 32.704 446.855 32.464 446.855 31.744C446.855 31.552 446.711 30.976 446.615 30.688C446.567 30.496 446.471 30.304 446.375 30.112C446.279 29.824 446.183 29.584 446.087 29.296L445.031 26.608C444.887 26.32 444.743 25.984 444.407 25.792C444.023 25.6 443.495 25.552 443.207 25.552H437.351C436.247 25.552 435.959 26.224 435.575 27.184L434.519 29.968C434.375 30.352 434.183 31.072 434.183 31.504C434.183 31.936 434.327 32.32 434.807 32.608C435.287 32.896 436.439 33.088 437.159 33.04V34H429.239ZM437.495 24.496H443.111C443.303 24.496 443.639 24.448 443.783 24.4C443.831 24.352 443.927 24.256 443.927 24.112C443.927 23.92 443.831 23.776 443.687 23.44C443.591 23.2 443.543 23.008 443.447 22.768C443.351 22.528 443.207 22.24 443.111 22L440.663 15.856C440.567 15.664 440.471 15.376 440.375 15.376C440.279 15.376 440.183 15.52 440.087 15.712C439.943 16 439.559 17.056 439.367 17.488L437.015 23.488C436.919 23.68 436.823 24.016 436.823 24.16C436.823 24.304 436.871 24.352 436.919 24.4C437.063 24.496 437.351 24.496 437.495 24.496Z" fill="#C6A984"/>
<line y1="-0.5" x2="344" y2="-0.5" transform="matrix(1 0 -0.00581365 0.999983 56 64)" stroke="#C6A984"/>
<rect width="12" height="12" rx="1" transform="matrix(0.708588 0.705623 -0.702493 0.71169 228 55)" fill="#C6A984"/>
</svg>
