<svg width="32" height="13" viewBox="0 0 32 13" fill="none" xmlns="http://www.w3.org/2000/svg">
<path d="M0.409091 12V0.363636H7.43182V1.61364H1.81818V5.54545H7.06818V6.79545H1.81818V10.75H7.52273V12H0.409091ZM19.1989 0.363636V12H17.8352L11.4943 2.86364H11.3807V12H9.97159V0.363636H11.3352L17.6989 9.52273H17.8125V0.363636H19.1989ZM29.973 4C29.848 3.61742 29.6832 3.27462 29.4787 2.97159C29.2779 2.66477 29.0374 2.40341 28.7571 2.1875C28.4806 1.97159 28.1662 1.80682 27.8139 1.69318C27.4616 1.57955 27.0753 1.52273 26.6548 1.52273C25.9654 1.52273 25.3385 1.70076 24.7741 2.05682C24.2098 2.41288 23.7609 2.9375 23.4276 3.63068C23.0942 4.32386 22.9276 5.17424 22.9276 6.18182C22.9276 7.18939 23.0961 8.03977 23.4332 8.73295C23.7704 9.42614 24.2268 9.95076 24.8026 10.3068C25.3783 10.6629 26.026 10.8409 26.7457 10.8409C27.4124 10.8409 27.9995 10.6989 28.5071 10.4148C29.0185 10.1269 29.4162 9.72159 29.7003 9.19886C29.9882 8.67235 30.1321 8.05303 30.1321 7.34091L30.5639 7.43182H27.0639V6.18182H31.4957V7.43182C31.4957 8.39015 31.2912 9.22348 30.8821 9.93182C30.4768 10.6402 29.9162 11.1894 29.2003 11.5795C28.4882 11.9659 27.67 12.1591 26.7457 12.1591C25.7154 12.1591 24.8101 11.9167 24.0298 11.4318C23.2533 10.947 22.6473 10.2576 22.2116 9.36364C21.7798 8.4697 21.5639 7.40909 21.5639 6.18182C21.5639 5.26136 21.687 4.43371 21.9332 3.69886C22.1832 2.96023 22.5355 2.33144 22.9901 1.8125C23.4446 1.29356 23.9825 0.895833 24.6037 0.619318C25.2249 0.342803 25.9086 0.204545 26.6548 0.204545C27.2685 0.204545 27.8404 0.297348 28.3707 0.482954C28.9048 0.664772 29.3802 0.924242 29.7969 1.26136C30.2173 1.5947 30.5677 1.99432 30.848 2.46023C31.1283 2.92235 31.3215 3.43561 31.4276 4H29.973Z" fill="white"/>
</svg>
