<svg width="127" height="62" viewBox="0 0 127 62" fill="none" xmlns="http://www.w3.org/2000/svg">
<path fill-rule="evenodd" clip-rule="evenodd" d="M21.6371 46.4976C22.7386 45.7292 23.2627 45.0671 25.0953 44.825C29.6189 44.2271 33.127 48.8958 31.2463 53.0913C30.331 55.1331 27.9021 56.9121 25.529 57.7255C16.7796 60.7242 8.08893 52.9724 10.1462 43.8963C10.7974 41.0249 12.4111 38.8767 14.0687 37.4683C16.6143 35.3062 18.5692 35.0484 21.6551 34.6971L21.6486 18.8627C19.762 18.6858 16.7854 19.3461 15.1645 19.8586C5.74226 22.8372 -0.580249 32.428 0.802976 42.8402C1.82645 50.5392 7.02536 56.8541 14.1312 59.6545C18.0228 61.1885 22.886 61.4566 27.1503 60.3081C31.2962 59.1916 34.3252 57.0283 36.6432 54.7376C37.1436 54.2424 36.9958 54.3299 36.9958 53.1308C36.9958 48.9794 37.1033 43.852 36.9852 39.9375C34.5017 39.8251 31.7881 39.9238 29.279 39.9238C28.0253 39.9238 22.3976 39.7665 21.63 39.9802L21.6371 46.4976ZM114.482 61.0525V47.8443L116.73 61.0622L120.064 61.0595L122.419 47.8448V61.0658L126.613 61.0325V39.966H121.117L118.404 54.4407L115.673 39.966H110.175L110.193 61.0638L114.482 61.0525ZM29.2562 37.1244C28.2488 35.8164 27.5802 32.1216 27.5598 30.2407C27.5453 28.8964 27.7332 27.6384 28.0522 26.4421C28.2665 25.6372 28.6601 24.4341 29.0709 23.6913L29.279 23.3951C30.2324 24.5402 30.9313 28.5058 30.9331 30.2407C30.9358 32.6312 30.2723 35.4876 29.2562 37.1244ZM24.6984 19.3178C24.7006 14.7935 25.8843 10.5627 27.5224 6.63557C28.1131 5.22051 28.7524 4.13654 29.1794 3.16065C29.4206 3.33484 29.7159 3.96056 29.876 4.26263C32.4216 9.05575 33.6834 13.9224 33.8373 19.4767C33.8687 20.6151 33.7049 24.2952 33.3909 25.5327L33.2704 25.8406C32.9908 22.2318 33.1839 20.4459 32.1389 16.6839C31.7095 15.1385 30.0129 10.1101 29.1957 9.35488C27.3961 12.9824 25.9667 16.9453 25.5261 21.0864C25.462 21.691 25.2376 25.7375 25.1968 25.8364C24.7743 25.0484 24.6979 20.6684 24.6984 19.3178ZM29.279 38.5771C30.0595 37.7686 31.0429 35.8688 31.6371 34.6973C37.3945 23.3492 36.1029 10.1483 29.2575 0.0698242C28.8557 0.551923 28.4144 1.36553 28.0676 1.95753C24.9623 7.25837 23.2905 12.8761 23.2809 19.3178C23.2733 24.8263 24.5418 29.9946 26.8703 34.6677C27.3295 35.5883 28.7237 38.1123 29.279 38.5771ZM101.672 43.5731C101.672 42.9778 101.759 42.5195 102.406 42.5871C102.986 42.6478 102.975 43.1454 102.975 43.7338L102.976 56.986C102.976 57.3863 103.031 58.0761 102.652 58.2555C101.86 58.3869 101.671 58.1469 101.671 57.3874L101.672 43.5731ZM97.4677 58.03C97.7269 61.2793 99.8388 61.0633 102.171 61.0633C104.931 61.0633 106.754 61.2195 107.149 58.3716C107.262 57.5558 107.278 44.2137 107.187 43.0292C106.952 39.9433 105.412 39.9447 102.491 39.9447C99.6528 39.9447 97.9036 39.7687 97.5053 42.651C97.368 43.6471 97.458 52.397 97.4536 54.1748C97.4507 55.3682 97.3747 56.8719 97.4677 58.03ZM53.2932 42.5772C53.411 42.7274 53.3386 42.5556 53.4173 42.8377L53.4883 43.7824C53.5243 44.2292 53.5539 44.685 53.5853 45.1064C53.6686 46.2178 54.146 52.5274 54.0882 53.1122L52.5009 53.1175C52.4695 52.8236 53.0409 43.1818 53.1984 42.7516C53.2517 42.6069 53.2257 42.668 53.2932 42.5772ZM47.7869 61.0631H51.9093L52.3116 55.4588L54.2073 55.5314C54.2223 55.5377 54.2483 55.5505 54.266 55.5645L54.6706 61.0631H58.7829L56.6154 39.9804H49.9694L47.7869 61.0631ZM64.8155 43.7338C64.8155 43.1335 64.8334 42.5914 65.4617 42.5842C66.1203 42.5766 66.1342 43.1036 66.1342 43.7338C66.1358 49.7123 66.5916 48.894 62.7459 49.0299L62.7627 51.3445C65.0686 51.3487 66.1376 51.0415 66.1358 53.0506L66.1367 55.0583C66.1376 56.5215 66.4592 58.6299 65.242 58.2676C64.3619 58.0057 65.1022 55.3687 64.7806 53.6469L60.6186 53.6621L60.5955 54.0143C60.3464 61.5405 61.1011 61.0593 67.3015 61.0622C69.5064 61.0633 70.3591 59.6602 70.3591 57.4679L70.3596 53.0506C70.3596 49.7038 67.6738 50.3061 67.5786 50.1027C67.5663 50.0766 67.5345 50.0894 67.5145 50.0789C67.6861 49.8685 67.7457 49.9672 68.0992 49.931C69.5572 49.7822 70.3641 48.6339 70.3596 47.1072C70.35 43.8938 71.0343 39.9454 67.3817 39.9454L63.6993 39.9447C60.0803 39.9451 60.5202 43.4502 60.6018 46.6902L64.8128 46.695L64.8155 43.7338ZM89.83 42.5864C91.0535 42.4273 91.159 43.0441 91.1638 44.135V49.9989C91.1656 51.0031 91.0435 51.4908 89.83 51.4908V42.5864ZM85.6165 61.0514H89.83V53.9001C90.8293 53.8936 92.2526 54.0274 93.3075 53.759C94.2891 53.5093 94.8833 52.8892 95.1667 51.9279C95.5659 50.574 95.3815 46.5653 95.382 44.8583C95.4207 39.5741 93.8139 40.0126 89.3148 39.9827H85.6212L85.6165 61.0514ZM39.6719 61.0581L43.8758 61.0595C43.969 60.0596 43.8913 49.1527 43.8886 47.1874C43.8873 46.3679 43.7916 43.1056 43.9468 42.5611L47.6978 42.5615L47.7032 39.9456H39.6807L39.6719 61.0581ZM78.6751 42.5918L78.637 61.0698H82.8707L82.8817 39.9827H73.1061V61.0698H77.3432L77.3586 42.5918H78.6751Z" fill="white"/>
</svg>
