<svg width="21" height="13" viewBox="0 0 21 13" fill="none" xmlns="http://www.w3.org/2000/svg">
<path d="M0.909091 12V0.363636H4.84091C5.75 0.363636 6.49621 0.518939 7.07955 0.829545C7.66288 1.13636 8.0947 1.55871 8.375 2.09659C8.6553 2.63447 8.79545 3.24621 8.79545 3.93182C8.79545 4.61742 8.6553 5.22538 8.375 5.75568C8.0947 6.28598 7.66477 6.70265 7.08523 7.00568C6.50568 7.30492 5.76515 7.45455 4.86364 7.45455H1.68182V6.18182H4.81818C5.43939 6.18182 5.93939 6.09091 6.31818 5.90909C6.70076 5.72727 6.97727 5.4697 7.14773 5.13636C7.32197 4.79924 7.40909 4.39773 7.40909 3.93182C7.40909 3.46591 7.32197 3.05871 7.14773 2.71023C6.97349 2.36174 6.69508 2.0928 6.3125 1.90341C5.92992 1.71023 5.42424 1.61364 4.79545 1.61364H2.31818V12H0.909091ZM6.38636 6.77273L9.25 12H7.61364L4.79545 6.77273H6.38636ZM18.7798 0.363636H20.1889V8.06818C20.1889 8.86364 20.0014 9.57386 19.6264 10.1989C19.2552 10.8201 18.7306 11.3106 18.0526 11.6705C17.3745 12.0265 16.5791 12.2045 15.6662 12.2045C14.7533 12.2045 13.9579 12.0265 13.2798 11.6705C12.6018 11.3106 12.0753 10.8201 11.7003 10.1989C11.3291 9.57386 11.1435 8.86364 11.1435 8.06818V0.363636H12.5526V7.95455C12.5526 8.52273 12.6776 9.02841 12.9276 9.47159C13.1776 9.91098 13.5336 10.2576 13.9957 10.5114C14.4616 10.7614 15.0185 10.8864 15.6662 10.8864C16.3139 10.8864 16.8707 10.7614 17.3366 10.5114C17.8026 10.2576 18.1586 9.91098 18.4048 9.47159C18.6548 9.02841 18.7798 8.52273 18.7798 7.95455V0.363636Z" fill="white"/>
</svg>
