<svg width="174" height="53" viewBox="0 0 174 53" fill="none" xmlns="http://www.w3.org/2000/svg">
<path d="M2.99907 24V22.1406L3.34921 22.1225C3.82412 22.0943 4.20042 21.9233 4.47812 21.6094C4.75984 21.2955 4.96711 20.7904 5.09992 20.0941C5.23676 19.3978 5.32731 18.4641 5.37158 17.293L5.57684 11.6364H13.6784V24H11.487V13.4776H7.66562L7.47243 17.9872C7.41609 19.3395 7.26718 20.4603 7.0257 21.3498C6.78825 22.2392 6.39786 22.9033 5.85454 23.342C5.31524 23.7807 4.56465 24 3.60276 24H2.99907ZM18.1306 21.0419L21.8434 14.7273H24.0891V24H21.9762V17.6793L18.2755 24H16.0237V14.7273H18.1306V21.0419ZM30.3781 24.1811C29.4524 24.1811 28.6575 23.9779 27.9935 23.5714C27.3334 23.1649 26.8243 22.6035 26.4661 21.8871C26.112 21.1667 25.9349 20.3376 25.9349 19.3999C25.9349 18.4581 26.116 17.627 26.4782 16.9066C26.8404 16.1822 27.3515 15.6187 28.0116 15.2163C28.6756 14.8098 29.4604 14.6065 30.366 14.6065C31.1186 14.6065 31.7847 14.7454 32.3642 15.0231C32.9478 15.2968 33.4126 15.6851 33.7587 16.1882C34.1049 16.6873 34.3021 17.2708 34.3504 17.9389H32.2616C32.1771 17.4922 31.9758 17.1199 31.6579 16.8221C31.344 16.5202 30.9234 16.3693 30.3962 16.3693C29.9494 16.3693 29.557 16.4901 29.219 16.7315C28.8809 16.969 28.6173 17.3111 28.4281 17.7578C28.243 18.2045 28.1504 18.7398 28.1504 19.3636C28.1504 19.9955 28.243 20.5388 28.4281 20.9936C28.6133 21.4444 28.8729 21.7925 29.2069 22.038C29.545 22.2795 29.9414 22.4002 30.3962 22.4002C30.7181 22.4002 31.0059 22.3398 31.2595 22.2191C31.517 22.0943 31.7323 21.9152 31.9054 21.6818C32.0785 21.4484 32.1972 21.1647 32.2616 20.8306H34.3504C34.298 21.4866 34.1049 22.0682 33.7708 22.5753C33.4368 23.0784 32.982 23.4728 32.4065 23.7585C31.831 24.0402 31.1548 24.1811 30.3781 24.1811ZM35.4717 16.5202V14.7273H43.5854V16.5202H40.585V24H38.4721V16.5202H35.4717ZM47.612 24.1871C47.0244 24.1871 46.4952 24.0825 46.0243 23.8732C45.5574 23.6599 45.1872 23.346 44.9135 22.9315C44.6438 22.5169 44.509 22.0058 44.509 21.3981C44.509 20.8749 44.6056 20.4422 44.7988 20.1001C44.992 19.758 45.2556 19.4844 45.5896 19.2791C45.9237 19.0739 46.3 18.9189 46.7185 18.8143C47.1411 18.7056 47.5778 18.6271 48.0285 18.5788C48.5719 18.5225 49.0126 18.4722 49.3506 18.4279C49.6887 18.3796 49.9342 18.3072 50.0871 18.2106C50.2441 18.11 50.3226 17.955 50.3226 17.7457V17.7095C50.3226 17.2547 50.1878 16.9026 49.9181 16.6531C49.6485 16.4035 49.2601 16.2788 48.753 16.2788C48.2177 16.2788 47.7931 16.3955 47.4792 16.6289C47.1693 16.8623 46.96 17.138 46.8513 17.456L44.8109 17.1662C44.9718 16.6027 45.2375 16.1319 45.6077 15.7536C45.978 15.3712 46.4308 15.0855 46.966 14.8963C47.5013 14.7031 48.0929 14.6065 48.7409 14.6065C49.1876 14.6065 49.6324 14.6589 50.0751 14.7635C50.5178 14.8681 50.9222 15.0412 51.2885 15.2827C51.6547 15.5201 51.9485 15.8441 52.1699 16.2546C52.3953 16.6651 52.5079 17.1783 52.5079 17.794V24H50.4071V22.7262H50.3347C50.2018 22.9838 50.0147 23.2253 49.7732 23.4506C49.5358 23.672 49.2359 23.8511 48.8737 23.9879C48.5155 24.1207 48.0949 24.1871 47.612 24.1871ZM48.1795 22.5813C48.6181 22.5813 48.9985 22.4948 49.3204 22.3217C49.6424 22.1446 49.8899 21.9112 50.063 21.6214C50.2401 21.3317 50.3286 21.0157 50.3286 20.6737V19.581C50.2602 19.6373 50.1435 19.6896 49.9785 19.7379C49.8175 19.7862 49.6364 19.8285 49.4351 19.8647C49.2339 19.9009 49.0347 19.9331 48.8375 19.9613C48.6403 19.9895 48.4692 20.0136 48.3244 20.0337C47.9984 20.078 47.7066 20.1504 47.449 20.2511C47.1914 20.3517 46.9882 20.4925 46.8393 20.6737C46.6904 20.8507 46.6159 21.0801 46.6159 21.3619C46.6159 21.7643 46.7628 22.0682 47.0566 22.2734C47.3504 22.4787 47.7247 22.5813 48.1795 22.5813ZM56.8123 21.0419L60.525 14.7273H62.7707V24H60.6578V17.6793L56.9572 24H54.7054V14.7273H56.8123V21.0419ZM59.9273 11.5398H61.5633C61.5633 12.2441 61.3078 12.8156 60.7967 13.2543C60.2896 13.6889 59.6013 13.9062 58.732 13.9062C57.8708 13.9062 57.1846 13.6889 56.6734 13.2543C56.1663 12.8156 55.9148 12.2441 55.9188 11.5398H57.5427C57.5427 11.8295 57.6313 12.0891 57.8084 12.3185C57.9895 12.5439 58.2974 12.6566 58.732 12.6566C59.1586 12.6566 59.4625 12.5439 59.6436 12.3185C59.8287 12.0932 59.9233 11.8336 59.9273 11.5398ZM63.9766 16.5202V14.7273H72.0902V16.5202H69.0899V24H66.977V16.5202H63.9766ZM77.5537 24.1811C76.624 24.1811 75.8211 23.9879 75.1449 23.6016C74.4728 23.2112 73.9557 22.6598 73.5934 21.9474C73.2312 21.2311 73.0501 20.3879 73.0501 19.418C73.0501 18.4641 73.2312 17.627 73.5934 16.9066C73.9597 16.1822 74.4708 15.6187 75.1268 15.2163C75.7828 14.8098 76.5535 14.6065 77.439 14.6065C78.0105 14.6065 78.5498 14.6991 79.0569 14.8842C79.568 15.0653 80.0187 15.3471 80.4091 15.7294C80.8035 16.1117 81.1134 16.5987 81.3388 17.1903C81.5642 17.7779 81.6769 18.4782 81.6769 19.2912V19.9613H74.0764V18.4883H79.5821C79.5781 18.0697 79.4875 17.6974 79.3104 17.3714C79.1333 17.0414 78.8858 16.7818 78.5679 16.5927C78.254 16.4035 77.8877 16.3089 77.4691 16.3089C77.0224 16.3089 76.63 16.4176 76.2919 16.6349C75.9539 16.8482 75.6903 17.13 75.5011 17.4801C75.316 17.8262 75.2214 18.2066 75.2174 18.6211V19.907C75.2174 20.4463 75.316 20.9091 75.5132 21.2955C75.7104 21.6778 75.9861 21.9716 76.3402 22.1768C76.6944 22.3781 77.1089 22.4787 77.5839 22.4787C77.9018 22.4787 78.1896 22.4344 78.4471 22.3459C78.7047 22.2533 78.9281 22.1185 79.1172 21.9414C79.3064 21.7643 79.4493 21.545 79.5459 21.2834L81.5863 21.5128C81.4575 22.0521 81.212 22.523 80.8498 22.9254C80.4916 23.3239 80.0328 23.6338 79.4734 23.8551C78.914 24.0724 78.2741 24.1811 77.5537 24.1811ZM87.7425 24V14.7273H91.6363C92.735 14.7273 93.6023 14.9466 94.2382 15.3853C94.8782 15.824 95.1981 16.4357 95.1981 17.2205C95.1981 17.7397 95.017 18.1643 94.6548 18.4943C94.2966 18.8203 93.8076 19.0397 93.1878 19.1523C93.6748 19.1926 94.1014 19.3153 94.4676 19.5206C94.8379 19.7259 95.1277 19.9955 95.337 20.3295C95.5462 20.6636 95.6509 21.0479 95.6509 21.4826C95.6509 21.9937 95.5161 22.4384 95.2464 22.8168C94.9808 23.1911 94.5924 23.4828 94.0813 23.6921C93.5742 23.8974 92.9584 24 92.234 24H87.7425ZM89.789 22.2795H92.234C92.6364 22.2795 92.9524 22.1849 93.1818 21.9957C93.4112 21.8026 93.5259 21.541 93.5259 21.2109C93.5259 20.8286 93.4112 20.5288 93.1818 20.3114C92.9524 20.0901 92.6364 19.9794 92.234 19.9794H89.789V22.2795ZM89.789 18.5668H91.6786C91.9764 18.5668 92.232 18.5245 92.4453 18.44C92.6586 18.3514 92.8216 18.2287 92.9343 18.0717C93.0469 17.9107 93.1033 17.7196 93.1033 17.4982C93.1033 17.1803 92.9725 16.9308 92.7109 16.7496C92.4533 16.5685 92.0951 16.478 91.6363 16.478H89.789V18.5668ZM103.823 18.4581V20.2511H98.8852V18.4581H103.823ZM99.5613 14.7273V24H97.4544V14.7273H99.5613ZM105.254 14.7273V24H103.153V14.7273H105.254ZM109.572 21.0419L113.285 14.7273H115.53V24H113.418V17.6793L109.717 24H107.465V14.7273H109.572V21.0419ZM117.262 21.4585H119.429C119.449 21.8046 119.604 22.0722 119.894 22.2614C120.183 22.4505 120.56 22.5451 121.023 22.5451C121.493 22.5451 121.89 22.4425 122.212 22.2372C122.538 22.0279 122.701 21.712 122.701 21.2894C122.701 21.0399 122.638 20.8205 122.514 20.6314C122.389 20.4382 122.214 20.2893 121.989 20.1847C121.763 20.08 121.497 20.0277 121.192 20.0277H119.773V18.4762H121.192C121.646 18.4762 121.991 18.3716 122.224 18.1623C122.461 17.953 122.58 17.6894 122.58 17.3714C122.58 17.0294 122.455 16.7517 122.206 16.5384C121.96 16.325 121.62 16.2184 121.186 16.2184C120.751 16.2184 120.389 16.317 120.099 16.5142C119.813 16.7114 119.664 16.965 119.652 17.2749H117.497C117.505 16.7356 117.666 16.2667 117.98 15.8683C118.298 15.4698 118.725 15.1599 119.26 14.9386C119.799 14.7172 120.407 14.6065 121.083 14.6065C121.807 14.6065 122.433 14.7152 122.96 14.9325C123.488 15.1499 123.894 15.4537 124.18 15.8441C124.466 16.2305 124.609 16.6853 124.609 17.2085C124.609 17.7115 124.452 18.1281 124.138 18.4581C123.824 18.7841 123.401 19.0175 122.87 19.1584V19.255C123.236 19.2751 123.566 19.3797 123.86 19.5689C124.154 19.754 124.387 20.0056 124.56 20.3235C124.733 20.6415 124.82 21.0097 124.82 21.4283C124.82 21.9957 124.657 22.4867 124.331 22.9013C124.005 23.3118 123.556 23.6277 122.985 23.8491C122.417 24.0704 121.767 24.1811 121.035 24.1811C120.322 24.1811 119.684 24.0745 119.121 23.8612C118.562 23.6438 118.117 23.3319 117.787 22.9254C117.457 22.5189 117.282 22.0299 117.262 21.4585Z" fill="white"/>
<path d="M6.93075 40.4545V47H5.92507V40.4545H6.93075ZM6.53871 43.5739V44.5114C6.31143 44.5966 6.08558 44.6719 5.86115 44.7372C5.63672 44.7997 5.40092 44.8494 5.15376 44.8864C4.90661 44.9205 4.6353 44.9375 4.33984 44.9375C3.59837 44.9375 3.0032 44.7372 2.55433 44.3366C2.10831 43.9361 1.8853 43.3352 1.8853 42.5341V40.4375H2.89098V42.5341C2.89098 42.8693 2.9549 43.1449 3.08274 43.3608C3.21058 43.5767 3.38388 43.7372 3.60263 43.8423C3.82138 43.9474 4.06712 44 4.33984 44C4.76598 44 5.15092 43.9616 5.49467 43.8849C5.84126 43.8054 6.18928 43.7017 6.53871 43.5739ZM7.8853 41.392V40.4545H13.2035V41.392H11.0558V47H10.0501V41.392H7.8853ZM16.9897 47.1364C16.3988 47.1364 15.8803 46.9957 15.4343 46.7145C14.9911 46.4332 14.6445 46.0398 14.3945 45.5341C14.1474 45.0284 14.0238 44.4375 14.0238 43.7614C14.0238 43.0795 14.1474 42.4844 14.3945 41.9759C14.6445 41.4673 14.9911 41.0724 15.4343 40.7912C15.8803 40.5099 16.3988 40.3693 16.9897 40.3693C17.5806 40.3693 18.0977 40.5099 18.5408 40.7912C18.9869 41.0724 19.3335 41.4673 19.5806 41.9759C19.8306 42.4844 19.9556 43.0795 19.9556 43.7614C19.9556 44.4375 19.8306 45.0284 19.5806 45.5341C19.3335 46.0398 18.9869 46.4332 18.5408 46.7145C18.0977 46.9957 17.5806 47.1364 16.9897 47.1364ZM16.9897 46.233C17.4386 46.233 17.8079 46.1179 18.0977 45.8878C18.3874 45.6577 18.6019 45.3551 18.7411 44.9801C18.8803 44.6051 18.9499 44.1989 18.9499 43.7614C18.9499 43.3239 18.8803 42.9162 18.7411 42.5384C18.6019 42.1605 18.3874 41.8551 18.0977 41.6222C17.8079 41.3892 17.4386 41.2727 16.9897 41.2727C16.5408 41.2727 16.1715 41.3892 15.8817 41.6222C15.592 41.8551 15.3775 42.1605 15.2383 42.5384C15.0991 42.9162 15.0295 43.3239 15.0295 43.7614C15.0295 44.1989 15.0991 44.6051 15.2383 44.9801C15.3775 45.3551 15.592 45.6577 15.8817 45.8878C16.1715 46.1179 16.5408 46.233 16.9897 46.233ZM26.3487 38L26.8601 38.6136C26.6612 38.8068 26.4311 38.9418 26.1697 39.0185C25.9084 39.0952 25.6129 39.142 25.2834 39.1591C24.9538 39.1761 24.5874 39.1932 24.1839 39.2102C23.7294 39.2273 23.353 39.3381 23.0547 39.5426C22.7564 39.7472 22.5263 40.0426 22.3643 40.429C22.2024 40.8153 22.0987 41.2898 22.0533 41.8523H22.1385C22.3601 41.4432 22.6669 41.142 23.0589 40.9489C23.451 40.7557 23.8714 40.6591 24.3203 40.6591C24.8317 40.6591 25.2919 40.7784 25.701 41.017C26.1101 41.2557 26.4339 41.6094 26.6726 42.0781C26.9112 42.5469 27.0305 43.125 27.0305 43.8125C27.0305 44.4972 26.9084 45.0881 26.6641 45.5852C26.4226 46.0824 26.0831 46.4659 25.6456 46.7358C25.2109 47.0028 24.701 47.1364 24.1158 47.1364C23.5305 47.1364 23.0178 46.9986 22.5774 46.723C22.1371 46.4446 21.7947 46.0327 21.5504 45.4872C21.3061 44.9389 21.1839 44.2614 21.1839 43.4545V42.7557C21.1839 41.2983 21.4311 40.1932 21.9254 39.4403C22.4226 38.6875 23.1697 38.2983 24.1669 38.2727C24.5192 38.2614 24.8331 38.2585 25.1087 38.2642C25.3842 38.2699 25.6243 38.2571 25.8288 38.2259C26.0334 38.1946 26.2067 38.1193 26.3487 38ZM24.1158 46.233C24.5107 46.233 24.8501 46.1335 25.1342 45.9347C25.4212 45.7358 25.6413 45.456 25.7947 45.0952C25.9482 44.7315 26.0249 44.304 26.0249 43.8125C26.0249 43.3352 25.9467 42.929 25.7905 42.5938C25.6371 42.2585 25.4169 42.0028 25.13 41.8267C24.843 41.6506 24.4993 41.5625 24.0987 41.5625C23.8061 41.5625 23.5433 41.6122 23.3104 41.7116C23.0774 41.8111 22.8786 41.9574 22.7138 42.1506C22.549 42.3437 22.4212 42.5795 22.3303 42.858C22.2422 43.1364 22.1953 43.4545 22.1896 43.8125C22.1896 44.5455 22.3615 45.1321 22.7053 45.5724C23.049 46.0128 23.5192 46.233 24.1158 46.233ZM29.4382 42.8239H31.3132C32.0803 42.8239 32.6669 43.0185 33.0732 43.4077C33.4794 43.7969 33.6825 44.2898 33.6825 44.8864C33.6825 45.2784 33.5916 45.6349 33.4098 45.956C33.228 46.2741 32.9609 46.5284 32.6087 46.7188C32.2564 46.9062 31.8246 47 31.3132 47H28.5689V40.4545H29.5746V46.0625H31.3132C31.7109 46.0625 32.0376 45.9574 32.2933 45.7472C32.549 45.5369 32.6768 45.267 32.6768 44.9375C32.6768 44.5909 32.549 44.3082 32.2933 44.0895C32.0376 43.8707 31.7109 43.7614 31.3132 43.7614H29.4382V42.8239ZM34.7223 47V40.4545H35.728V47H34.7223ZM41.5916 49.4545C41.4212 49.4545 41.2692 49.4403 41.1357 49.4119C41.0021 49.3864 40.9098 49.3608 40.8587 49.3352L41.1143 48.4489C41.3587 48.5114 41.5746 48.5341 41.7621 48.517C41.9496 48.5 42.1158 48.4162 42.2607 48.2656C42.4084 48.1179 42.5433 47.8778 42.6655 47.5455L42.853 47.0341L40.4325 40.4545H41.5234L43.3303 45.6705H43.3984L45.2053 40.4545H46.2962L43.5178 47.9545C43.3928 48.2926 43.2379 48.5724 43.0533 48.794C42.8686 49.0185 42.6541 49.1847 42.4098 49.2926C42.1683 49.4006 41.8956 49.4545 41.5916 49.4545ZM47.2145 45.3295H48.2884C48.3111 45.625 48.4446 45.8494 48.6889 46.0028C48.9361 46.1562 49.2571 46.233 49.652 46.233C50.0554 46.233 50.4006 46.1506 50.6875 45.9858C50.9744 45.8182 51.1179 45.5483 51.1179 45.1761C51.1179 44.9574 51.0639 44.767 50.956 44.6051C50.848 44.4403 50.696 44.3125 50.5 44.2216C50.304 44.1307 50.0724 44.0852 49.8054 44.0852H48.6804V43.1818H49.8054C50.206 43.1818 50.5014 43.0909 50.6918 42.9091C50.8849 42.7273 50.9815 42.5 50.9815 42.2273C50.9815 41.9347 50.8778 41.7003 50.6705 41.5241C50.4631 41.3452 50.169 41.2557 49.7884 41.2557C49.4048 41.2557 49.0852 41.3423 48.8295 41.5156C48.5739 41.6861 48.4389 41.9062 48.4247 42.1761H47.3679C47.3793 41.8239 47.4872 41.5128 47.6918 41.2429C47.8963 40.9702 48.1747 40.7571 48.527 40.6037C48.8793 40.4474 49.2827 40.3693 49.7372 40.3693C50.1974 40.3693 50.5966 40.4503 50.9347 40.6122C51.2756 40.7713 51.5384 40.9886 51.723 41.2642C51.9105 41.5369 52.0043 41.8466 52.0043 42.1932C52.0043 42.5625 51.9006 42.8608 51.6932 43.0881C51.4858 43.3153 51.2259 43.4773 50.9134 43.5739V43.642C51.1605 43.6591 51.375 43.7386 51.5568 43.8807C51.7415 44.0199 51.8849 44.2031 51.9872 44.4304C52.0895 44.6548 52.1406 44.9034 52.1406 45.1761C52.1406 45.5739 52.0341 45.9205 51.821 46.2159C51.608 46.5085 51.3153 46.7358 50.9432 46.8977C50.571 47.0568 50.1463 47.1364 49.669 47.1364C49.206 47.1364 48.7912 47.0611 48.4247 46.9105C48.0582 46.7571 47.767 46.5455 47.5511 46.2756C47.3381 46.0028 47.2259 45.6875 47.2145 45.3295ZM57.9339 43.267V44.2045H54.3203V43.267H57.9339ZM54.5589 40.4545V47H53.5533V40.4545H54.5589ZM58.701 40.4545V47H57.6953V40.4545H58.701ZM62.4638 47.1534C62.049 47.1534 61.6726 47.0753 61.3345 46.919C60.9964 46.7599 60.728 46.5312 60.5291 46.233C60.3303 45.9318 60.2308 45.5682 60.2308 45.142C60.2308 44.767 60.3047 44.4631 60.4524 44.2301C60.6001 43.9943 60.7976 43.8097 61.0447 43.6761C61.2919 43.5426 61.5646 43.4432 61.8629 43.3778C62.1641 43.3097 62.4666 43.2557 62.7706 43.2159C63.1683 43.1648 63.4908 43.1264 63.7379 43.1009C63.9879 43.0724 64.1697 43.0256 64.2834 42.9602C64.3999 42.8949 64.4581 42.7812 64.4581 42.6193V42.5852C64.4581 42.1648 64.343 41.8381 64.1129 41.6051C63.8857 41.3722 63.5405 41.2557 63.0774 41.2557C62.5973 41.2557 62.2209 41.3608 61.9482 41.571C61.6754 41.7812 61.4837 42.0057 61.3729 42.2443L60.4183 41.9034C60.5888 41.5057 60.8161 41.196 61.1001 40.9744C61.3871 40.75 61.6996 40.5937 62.0376 40.5057C62.3786 40.4148 62.7138 40.3693 63.0433 40.3693C63.2536 40.3693 63.495 40.3949 63.7678 40.446C64.0433 40.4943 64.3089 40.5952 64.5646 40.7486C64.8232 40.902 65.0376 41.1335 65.2081 41.4432C65.3786 41.7528 65.4638 42.1676 65.4638 42.6875V47H64.4581V46.1136H64.407C64.3388 46.2557 64.2251 46.4077 64.0661 46.5696C63.907 46.7315 63.6953 46.8693 63.4311 46.983C63.1669 47.0966 62.8445 47.1534 62.4638 47.1534ZM62.6172 46.25C63.0149 46.25 63.3501 46.1719 63.6229 46.0156C63.8984 45.8594 64.1058 45.6577 64.245 45.4105C64.3871 45.1634 64.4581 44.9034 64.4581 44.6307V43.7102C64.4155 43.7614 64.3217 43.8082 64.1768 43.8509C64.0348 43.8906 63.87 43.9261 63.6825 43.9574C63.4979 43.9858 63.3175 44.0114 63.1413 44.0341C62.968 44.054 62.8274 44.071 62.7195 44.0852C62.4581 44.1193 62.2138 44.1747 61.9865 44.2514C61.7621 44.3253 61.5803 44.4375 61.4411 44.5881C61.3047 44.7358 61.2365 44.9375 61.2365 45.1932C61.2365 45.5426 61.3658 45.8068 61.6243 45.9858C61.8857 46.1619 62.2166 46.25 62.6172 46.25ZM66.4087 41.392V40.4545H71.7269V41.392H69.5792V47H68.5735V41.392H66.4087ZM74.0632 42.8239H75.9382C76.7053 42.8239 77.2919 43.0185 77.6982 43.4077C78.1044 43.7969 78.3075 44.2898 78.3075 44.8864C78.3075 45.2784 78.2166 45.6349 78.0348 45.956C77.853 46.2741 77.5859 46.5284 77.2337 46.7188C76.8814 46.9062 76.4496 47 75.9382 47H73.1939V40.4545H74.1996V46.0625H75.9382C76.3359 46.0625 76.6626 45.9574 76.9183 45.7472C77.174 45.5369 77.3018 45.267 77.3018 44.9375C77.3018 44.5909 77.174 44.3082 76.9183 44.0895C76.6626 43.8707 76.3359 43.7614 75.9382 43.7614H74.0632V42.8239ZM88.0714 38L88.5827 38.6136C88.3839 38.8068 88.1538 38.9418 87.8924 39.0185C87.631 39.0952 87.3356 39.142 87.006 39.1591C86.6765 39.1761 86.31 39.1932 85.9066 39.2102C85.4521 39.2273 85.0756 39.3381 84.7773 39.5426C84.479 39.7472 84.2489 40.0426 84.087 40.429C83.9251 40.8153 83.8214 41.2898 83.7759 41.8523H83.8612C84.0827 41.4432 84.3896 41.142 84.7816 40.9489C85.1737 40.7557 85.5941 40.6591 86.043 40.6591C86.5543 40.6591 87.0146 40.7784 87.4237 41.017C87.8327 41.2557 88.1566 41.6094 88.3952 42.0781C88.6339 42.5469 88.7532 43.125 88.7532 43.8125C88.7532 44.4972 88.631 45.0881 88.3867 45.5852C88.1452 46.0824 87.8058 46.4659 87.3683 46.7358C86.9336 47.0028 86.4237 47.1364 85.8384 47.1364C85.2532 47.1364 84.7404 46.9986 84.3001 46.723C83.8597 46.4446 83.5174 46.0327 83.2731 45.4872C83.0288 44.9389 82.9066 44.2614 82.9066 43.4545V42.7557C82.9066 41.2983 83.1538 40.1932 83.6481 39.4403C84.1452 38.6875 84.8924 38.2983 85.8896 38.2727C86.2418 38.2614 86.5558 38.2585 86.8313 38.2642C87.1069 38.2699 87.3469 38.2571 87.5515 38.2259C87.756 38.1946 87.9293 38.1193 88.0714 38ZM85.8384 46.233C86.2333 46.233 86.5728 46.1335 86.8569 45.9347C87.1438 45.7358 87.364 45.456 87.5174 45.0952C87.6708 44.7315 87.7475 44.304 87.7475 43.8125C87.7475 43.3352 87.6694 42.929 87.5131 42.5938C87.3597 42.2585 87.1396 42.0028 86.8526 41.8267C86.5657 41.6506 86.2219 41.5625 85.8214 41.5625C85.5288 41.5625 85.266 41.6122 85.033 41.7116C84.8001 41.8111 84.6012 41.9574 84.4364 42.1506C84.2717 42.3437 84.1438 42.5795 84.0529 42.858C83.9648 43.1364 83.918 43.4545 83.9123 43.8125C83.9123 44.5455 84.0842 45.1321 84.4279 45.5724C84.7717 46.0128 85.2418 46.233 85.8384 46.233ZM92.9506 47.1364C92.3597 47.1364 91.8413 46.9957 91.3952 46.7145C90.9521 46.4332 90.6055 46.0398 90.3555 45.5341C90.1083 45.0284 89.9847 44.4375 89.9847 43.7614C89.9847 43.0795 90.1083 42.4844 90.3555 41.9759C90.6055 41.4673 90.9521 41.0724 91.3952 40.7912C91.8413 40.5099 92.3597 40.3693 92.9506 40.3693C93.5415 40.3693 94.0586 40.5099 94.5018 40.7912C94.9478 41.0724 95.2944 41.4673 95.5415 41.9759C95.7915 42.4844 95.9165 43.0795 95.9165 43.7614C95.9165 44.4375 95.7915 45.0284 95.5415 45.5341C95.2944 46.0398 94.9478 46.4332 94.5018 46.7145C94.0586 46.9957 93.5415 47.1364 92.9506 47.1364ZM92.9506 46.233C93.3995 46.233 93.7688 46.1179 94.0586 45.8878C94.3484 45.6577 94.5629 45.3551 94.7021 44.9801C94.8413 44.6051 94.9109 44.1989 94.9109 43.7614C94.9109 43.3239 94.8413 42.9162 94.7021 42.5384C94.5629 42.1605 94.3484 41.8551 94.0586 41.6222C93.7688 41.3892 93.3995 41.2727 92.9506 41.2727C92.5018 41.2727 92.1325 41.3892 91.8427 41.6222C91.5529 41.8551 91.3384 42.1605 91.1992 42.5384C91.06 42.9162 90.9904 43.3239 90.9904 43.7614C90.9904 44.1989 91.06 44.6051 91.1992 44.9801C91.3384 45.3551 91.5529 45.6577 91.8427 45.8878C92.1325 46.1179 92.5018 46.233 92.9506 46.233ZM96.8722 47V46.0625H97.1108C97.3068 46.0625 97.4702 46.0241 97.6009 45.9474C97.7315 45.8679 97.8366 45.7301 97.9162 45.5341C97.9986 45.3352 98.0611 45.0597 98.1037 44.7074C98.1491 44.3523 98.1818 43.9006 98.2017 43.3523L98.321 40.4545H102.685V47H101.679V41.392H99.2756L99.1733 43.7273C99.1506 44.2642 99.1023 44.7372 99.0284 45.1463C98.9574 45.5526 98.848 45.8935 98.7003 46.169C98.5554 46.4446 98.3622 46.652 98.1207 46.7912C97.8793 46.9304 97.5767 47 97.2131 47H96.8722ZM105.399 42.8239H107.274C108.041 42.8239 108.628 43.0185 109.034 43.4077C109.44 43.7969 109.643 44.2898 109.643 44.8864C109.643 45.2784 109.553 45.6349 109.371 45.956C109.189 46.2741 108.922 46.5284 108.57 46.7188C108.217 46.9062 107.786 47 107.274 47H104.53V40.4545H105.536V46.0625H107.274C107.672 46.0625 107.999 45.9574 108.254 45.7472C108.51 45.5369 108.638 45.267 108.638 44.9375C108.638 44.5909 108.51 44.3082 108.254 44.0895C107.999 43.8707 107.672 43.7614 107.274 43.7614H105.399V42.8239ZM111.174 40.4545H112.18V46.0625H114.652V40.4545H115.657V46.0625H118.129V40.4545H119.135V47H111.174V40.4545ZM123.716 47.1364C123.085 47.1364 122.541 46.9972 122.083 46.7188C121.629 46.4375 121.278 46.0455 121.031 45.5426C120.787 45.0369 120.664 44.4489 120.664 43.7784C120.664 43.108 120.787 42.517 121.031 42.0057C121.278 41.4915 121.622 41.0909 122.062 40.804C122.505 40.5142 123.022 40.3693 123.613 40.3693C123.954 40.3693 124.291 40.4261 124.623 40.5398C124.956 40.6534 125.258 40.8381 125.531 41.0938C125.804 41.3466 126.021 41.6818 126.183 42.0994C126.345 42.517 126.426 43.0312 126.426 43.642V44.0682H121.38V43.1989H125.403C125.403 42.8295 125.329 42.5 125.181 42.2102C125.037 41.9205 124.829 41.6918 124.559 41.5241C124.292 41.3565 123.977 41.2727 123.613 41.2727C123.213 41.2727 122.866 41.3722 122.574 41.571C122.284 41.767 122.061 42.0227 121.904 42.3381C121.748 42.6534 121.67 42.9915 121.67 43.3523V43.9318C121.67 44.4261 121.755 44.8452 121.926 45.1889C122.099 45.5298 122.339 45.7898 122.646 45.9688C122.953 46.1449 123.309 46.233 123.716 46.233C123.98 46.233 124.218 46.196 124.431 46.1222C124.647 46.0455 124.833 45.9318 124.99 45.7812C125.146 45.6278 125.267 45.4375 125.352 45.2102L126.324 45.483C126.221 45.8125 126.049 46.1023 125.808 46.3523C125.566 46.5994 125.268 46.7926 124.913 46.9318C124.558 47.0682 124.159 47.1364 123.716 47.1364Z" fill="white"/>
<rect x="145" y="1" width="28" height="51" rx="14" stroke="white" stroke-width="2"/>
<circle cx="159" cy="15" r="3" fill="white"/>
</svg>
